<svg width="35" height="24" viewBox="0 0 35 24" fill="none" xmlns="http://www.w3.org/2000/svg">
<rect x="0.986465" y="0.662109" width="32.5405" height="22.6757" rx="3.5" fill="white" stroke="#B2BCCA"/>
<path d="M14.4865 23.1621L33.4865 17.4121V20.1621C33.4865 21.819 32.1433 23.1621 30.4865 23.1621H14.4865Z" fill="#FD6020"/>
<path fill-rule="evenodd" clip-rule="evenodd" d="M29.4829 9.14991C30.5141 9.14991 31.0812 9.62692 31.0812 10.5279C31.1328 11.2169 30.6688 11.8 30.0501 11.906L31.4421 13.867H30.3594L29.1736 11.959H29.0704V13.867H28.194V9.14991H29.4829ZM29.0705 11.3229H29.3283C29.8954 11.3229 30.1532 11.0579 30.1532 10.5809C30.1532 10.1569 29.8954 9.8919 29.3283 9.8919H29.0705V11.3229ZM25.1521 13.867H27.6269V13.072H26.0286V11.8H27.5753V11.0049H26.0286V9.94493H27.6269V9.14991H25.1521V13.867ZM22.5741 12.33L21.3882 9.14991H20.4602L22.3678 13.973H22.8319L24.7395 9.14991H23.8115L22.5741 12.33ZM12.1077 11.5349C12.1077 12.8599 13.1388 13.9729 14.4278 13.9729C14.8403 13.9729 15.2012 13.8669 15.5621 13.7079V12.6479C15.3043 12.9659 14.9434 13.1779 14.5309 13.1779C13.706 13.1779 13.0357 12.5419 13.0357 11.6939V11.5879C12.9842 10.7399 13.6544 9.99784 14.4794 9.94484C14.8918 9.94484 15.3043 10.1568 15.5621 10.4748V9.41483C15.2527 9.20282 14.8403 9.14982 14.4794 9.14982C13.1388 9.04382 12.1077 10.1568 12.1077 11.5349ZM10.5094 10.9519C9.99383 10.7399 9.83915 10.6339 9.83915 10.3689C9.89071 10.0509 10.1485 9.78589 10.4579 9.83889C10.7156 9.83889 10.9734 9.99789 11.1797 10.2099L11.6437 9.57388C11.2828 9.25588 10.8188 9.04388 10.3547 9.04388C9.63292 8.99087 9.01422 9.57388 8.96266 10.3159V10.3689C8.96266 11.0049 9.22045 11.3759 10.0454 11.6409C10.2516 11.6939 10.4579 11.7999 10.6641 11.9059C10.8188 12.0119 10.9219 12.1709 10.9219 12.3829C10.9219 12.7539 10.6125 13.0719 10.3032 13.0719H10.2516C9.83915 13.0719 9.47825 12.8069 9.32357 12.4359L8.75643 13.0189C9.06578 13.602 9.68448 13.92 10.3032 13.92C11.1281 13.973 11.7984 13.337 11.8499 12.4889V12.3299C11.7984 11.6939 11.5406 11.3759 10.5094 10.9519ZM7.51902 13.867H8.39551V9.14991H7.51902V13.867ZM3.44592 9.14918H4.73488H4.99268C6.23008 9.20218 7.20969 10.2622 7.15813 11.5342C7.15813 12.2232 6.84878 12.8592 6.3332 13.3363C5.86917 13.7073 5.30203 13.9193 4.73488 13.8663H3.44592V9.14918ZM4.58023 13.072C4.9927 13.125 5.45672 12.966 5.76607 12.701C6.07542 12.383 6.2301 11.959 6.2301 11.482C6.2301 11.058 6.07542 10.634 5.76607 10.316C5.45672 10.051 4.9927 9.89198 4.58023 9.94498H4.32244V13.072H4.58023Z" fill="black"/>
<path fill-rule="evenodd" clip-rule="evenodd" d="M18.1917 9.04053C16.9027 9.04053 15.82 10.1005 15.82 11.4786C15.82 12.8036 16.8512 13.9166 18.1917 13.9696C19.5322 14.0226 20.5634 12.9096 20.6149 11.5316C20.5634 10.1535 19.5322 9.04053 18.1917 9.04053V9.04053Z" fill="#FD6020"/>
</svg>
