<svg width="24" height="24" viewBox="0 0 24 24" fill="none" xmlns="http://www.w3.org/2000/svg">
<g clip-path="url(#clip0_1064_1583)">
<path d="M23.7089 12.2242C23.7089 11.2409 23.6292 10.5234 23.4565 9.7793H12.2285V14.2173H18.8191C18.6863 15.3202 17.9687 16.9811 16.3742 18.0972L16.3518 18.2458L19.9019 20.996L20.1479 21.0205C22.4067 18.9344 23.7089 15.8649 23.7089 12.2242Z" fill="#4285F4"/>
<path d="M12.2295 23.9212C15.4585 23.9212 18.1694 22.858 20.1494 21.0241L16.3755 18.1003C15.3656 18.8047 14.0101 19.2964 12.2295 19.2964C9.0668 19.2964 6.38252 17.21 5.42565 14.3262L5.2854 14.3381L1.59369 17.1953L1.54541 17.3296C3.5121 21.2367 7.55184 23.9212 12.2295 23.9212Z" fill="#34A853"/>
<path d="M5.42504 14.3248C5.17258 13.5807 5.02648 12.7834 5.02648 11.9596C5.02648 11.1357 5.17259 10.3385 5.41176 9.5944L5.40507 9.43592L1.66739 6.5332L1.5451 6.59137C0.7346 8.21247 0.269531 10.0329 0.269531 11.9596C0.269531 13.8863 0.7346 15.7066 1.5451 17.3277L5.42504 14.3248Z" fill="#FBBC05"/>
<path d="M12.2286 4.62403C14.4742 4.62403 15.9889 5.59402 16.8526 6.40461L20.2277 3.10928C18.1549 1.1826 15.4574 0 12.2286 0C7.55136 0 3.51194 2.68406 1.54541 6.59056L5.41207 9.59359C6.38214 6.7102 9.0662 4.62403 12.2286 4.62403Z" fill="#EB4335"/>
</g>
<defs>
<clipPath id="clip0_1064_1583">
<rect width="24" height="24" fill="white"/>
</clipPath>
</defs>
</svg>
