<svg width="35" height="24" viewBox="0 0 35 24" fill="none" xmlns="http://www.w3.org/2000/svg">
<rect x="1.47295" y="0.662109" width="32.5405" height="22.6757" rx="3.5" fill="white" stroke="#B2BCCA"/>
<path d="M19.9703 11.7099C19.9703 15.3633 17.0426 18.325 13.4311 18.325C9.81957 18.325 6.89186 15.3633 6.89186 11.7099C6.89186 8.05643 9.81957 5.09473 13.4311 5.09473C17.0426 5.09473 19.9703 8.05643 19.9703 11.7099Z" fill="#ED0006"/>
<path d="M28.4537 11.7099C28.4537 15.3633 25.5259 18.325 21.9144 18.325C18.3029 18.325 15.3752 15.3633 15.3752 11.7099C15.3752 8.05643 18.3029 5.09473 21.9144 5.09473C25.5259 5.09473 28.4537 8.05643 28.4537 11.7099Z" fill="#2F80ED"/>
<path fill-rule="evenodd" clip-rule="evenodd" d="M17.6728 6.6748C19.0788 7.88814 19.9703 9.69357 19.9703 11.7096C19.9703 13.7257 19.0788 15.5311 17.6728 16.7445C16.2668 15.5311 15.3753 13.7257 15.3753 11.7096C15.3753 9.69357 16.2668 7.88814 17.6728 6.6748Z" fill="#6C6BBD"/>
</svg>
