<svg width="34" height="24" viewBox="0 0 34 24" fill="none" xmlns="http://www.w3.org/2000/svg">
<rect x="0.959457" y="0.662109" width="32.5405" height="22.6757" rx="3.5" fill="white" stroke="#B2BCCA"/>
<path fill-rule="evenodd" clip-rule="evenodd" d="M17.4063 16.764C16.2382 17.7486 14.7231 18.3429 13.0674 18.3429C9.37317 18.3429 6.37837 15.3838 6.37837 11.7335C6.37837 8.08318 9.37317 5.12402 13.0674 5.12402C14.7231 5.12402 16.2382 5.71838 17.4063 6.70293C18.5743 5.71838 20.0895 5.12402 21.7451 5.12402C25.4394 5.12402 28.4342 8.08318 28.4342 11.7335C28.4342 15.3838 25.4394 18.3429 21.7451 18.3429C20.0895 18.3429 18.5743 17.7486 17.4063 16.764Z" fill="#ED0006"/>
<path fill-rule="evenodd" clip-rule="evenodd" d="M17.4062 16.7641C18.8445 15.5518 19.7565 13.7479 19.7565 11.7335C19.7565 9.7191 18.8445 7.91518 17.4062 6.70289C18.5743 5.71836 20.0894 5.12402 21.745 5.12402C25.4393 5.12402 28.4341 8.08318 28.4341 11.7335C28.4341 15.3838 25.4393 18.3429 21.745 18.3429C20.0894 18.3429 18.5743 17.7486 17.4062 16.7641Z" fill="#F9A000"/>
<path fill-rule="evenodd" clip-rule="evenodd" d="M17.4063 16.7642C18.8445 15.5519 19.7565 13.748 19.7565 11.7337C19.7565 9.71931 18.8445 7.91542 17.4063 6.70312C15.9681 7.91542 15.0561 9.71931 15.0561 11.7337C15.0561 13.748 15.9681 15.5519 17.4063 16.7642Z" fill="#FD6020"/>
</svg>
