<svg width="217" height="150" viewBox="0 0 217 150" fill="none" xmlns="http://www.w3.org/2000/svg">
<ellipse cx="32.6001" cy="82.1803" rx="2.4" ry="2.4" fill="#3FC086"/>
<ellipse cx="27.6499" cy="92.8305" rx="2.1" ry="2.1" fill="#48DA98"/>
<ellipse cx="25.3999" cy="85.1806" rx="2.1" ry="2.1" fill="#3FC086"/>
<ellipse cx="21.3501" cy="78.8802" rx="1.95" ry="1.95" fill="#B5BFCB"/>
<ellipse cx="27.6499" cy="73.4802" rx="1.8" ry="1.8" fill="#B5BFCB"/>
<rect x="104.3" y="55.7803" width="13.5" height="39.3" rx="6" fill="#3FC086"/>
<path d="M38.0518 57.342C40.4753 55.082 44.272 55.2146 46.5319 57.6381L47.406 58.5754C49.6659 60.9989 49.5333 64.7956 47.1098 67.0555L37.8475 75.6928L28.7894 65.9793L38.0518 57.342Z" fill="#3FC086"/>
<path d="M7.88812 67.0559C5.46463 64.7959 5.33205 60.9992 7.59199 58.5757L8.46603 57.6385C10.726 55.215 14.5226 55.0824 16.9461 57.3423L26.2085 65.9796L17.1505 75.6932L7.88812 67.0559Z" fill="#48DA98"/>
<rect x="69.0701" y="53.3804" width="13.2808" height="42.5372" rx="6.6404" transform="rotate(28 69.0701 53.3804)" fill="#48DA98"/>
<rect x="62.8555" y="59.585" width="13.2808" height="42.5372" rx="6.6404" transform="rotate(-28 62.8555 59.585)" fill="#3FC086"/>
<path d="M131.173 100.591C133.103 102.521 136.261 102.537 137.946 100.39C140.262 97.4402 142.169 94.1825 143.61 90.7038C145.683 85.6992 146.75 80.3352 146.75 74.9182C146.75 69.5011 145.683 64.1371 143.61 59.1325C142.169 55.6538 140.262 52.3961 137.946 49.4466C136.261 47.299 133.103 47.3151 131.173 49.2457C129.242 51.1763 129.28 54.2878 130.883 56.4975C132.325 58.4842 133.532 60.6378 134.476 62.9161C136.052 66.7213 136.863 70.7995 136.863 74.9182C136.863 79.0368 136.052 83.1151 134.476 86.9202C133.532 89.1985 132.325 91.3522 130.883 93.3388C129.28 95.5485 129.242 98.66 131.173 100.591Z" fill="#3FC086"/>
<path d="M149.843 30.788C153.178 27.4533 158.632 27.4255 161.544 31.135C165.543 36.2297 168.838 41.8566 171.326 47.8652C174.907 56.5096 176.75 65.7747 176.75 75.1314C176.75 84.488 174.907 93.7531 171.326 102.398C168.838 108.406 165.543 114.033 161.544 119.128C158.632 122.837 153.178 122.809 149.843 119.475C146.509 116.14 146.574 110.765 149.344 106.949C151.834 103.517 153.918 99.7972 155.548 95.862C158.271 89.2896 159.672 82.2453 159.672 75.1314C159.672 68.0174 158.271 60.9731 155.548 54.4007C153.918 50.4655 151.834 46.7456 149.344 43.3141C146.574 39.4973 146.509 34.1228 149.843 30.788Z" fill="#3FC086"/>
<path d="M171.762 9.0449C176.757 4.04954 184.927 4.00786 189.288 9.56577C195.258 17.1752 200.177 25.5785 203.893 34.5511C209.245 47.4723 212 61.3211 212 75.3069C212 89.2927 209.245 103.141 203.893 116.063C200.177 125.035 195.258 133.439 189.288 141.048C184.927 146.606 176.757 146.564 171.762 141.569C166.767 136.574 166.864 128.523 171.011 122.803C174.721 117.686 177.828 112.139 180.258 106.273C184.324 96.4552 186.417 85.9331 186.417 75.3069C186.417 64.6807 184.324 54.1585 180.258 44.3412C177.828 38.4744 174.721 32.928 171.011 27.8106C166.864 22.0911 166.767 14.0403 171.762 9.0449Z" fill="#3FC086"/>
</svg>
