<svg width="34" height="24" viewBox="0 0 34 24" fill="none" xmlns="http://www.w3.org/2000/svg">
<rect x="0.499985" y="0.662109" width="32.5405" height="22.6757" rx="3.5" fill="white" stroke="#B2BCCA"/>
<path fill-rule="evenodd" clip-rule="evenodd" d="M10.605 15.8062H8.57305L7.04937 9.82229C6.97705 9.54703 6.82349 9.30368 6.59761 9.18899C6.03391 8.90077 5.41275 8.67138 4.73512 8.5557V8.32531H8.00836C8.46011 8.32531 8.79893 8.67138 8.8554 9.0733L9.64597 13.3897L11.6769 8.32531H13.6523L10.605 15.8062ZM14.7817 15.8062H12.8628L14.4429 8.32531H16.3619L14.7817 15.8062ZM18.8446 10.3978C18.901 9.99488 19.2398 9.7645 19.6351 9.7645C20.2563 9.70665 20.9329 9.82234 21.4976 10.1096L21.8364 8.4989C21.2718 8.26852 20.6506 8.15283 20.0869 8.15283C18.2244 8.15283 16.8691 9.18904 16.8691 10.6272C16.8691 11.7212 17.8291 12.2957 18.5067 12.6418C19.2398 12.9868 19.5222 13.2172 19.4657 13.5623C19.4657 14.0799 18.901 14.3103 18.3373 14.3103C17.6597 14.3103 16.9821 14.1377 16.3619 13.8495L16.0231 15.4612C16.7007 15.7484 17.4338 15.8641 18.1114 15.8641C20.1998 15.9209 21.4976 14.8857 21.4976 13.3319C21.4976 11.3752 18.8446 11.2605 18.8446 10.3978ZM28.2134 15.8062L26.6897 8.32531H25.0531C24.7143 8.32531 24.3755 8.5557 24.2626 8.90077L21.4411 15.8062H23.4165L23.8108 14.7131H26.238L26.4639 15.8062H28.2134ZM25.3356 10.3399L25.8993 13.1593H24.3191L25.3356 10.3399Z" fill="#28356A"/>
</svg>
