<svg width="9" height="16" viewBox="0 0 9 16" fill="none" xmlns="http://www.w3.org/2000/svg">
<path d="M8.76528 8.26552L1.26528 15.7655C1.23044 15.8004 1.18907 15.828 1.14355 15.8469C1.09803 15.8657 1.04924 15.8754 0.999965 15.8754C0.950692 15.8754 0.901901 15.8657 0.856379 15.8469C0.810856 15.828 0.769493 15.8004 0.734652 15.7655C0.699811 15.7307 0.672173 15.6893 0.653317 15.6438C0.634461 15.5983 0.624756 15.5495 0.624756 15.5002C0.624756 15.4509 0.634461 15.4021 0.653317 15.3566C0.672173 15.3111 0.699811 15.2697 0.734652 15.2349L7.96934 8.00021L0.734652 0.765521C0.664287 0.695156 0.624756 0.59972 0.624756 0.500208C0.624756 0.400697 0.664287 0.305261 0.734652 0.234896C0.805017 0.164531 0.900453 0.125 0.999965 0.125C1.09948 0.125 1.19491 0.164531 1.26528 0.234896L8.76528 7.7349C8.80014 7.76972 8.8278 7.81108 8.84667 7.85661C8.86555 7.90213 8.87526 7.95093 8.87526 8.00021C8.87526 8.04949 8.86555 8.09829 8.84667 8.14381C8.8278 8.18934 8.80014 8.23069 8.76528 8.26552Z" fill="black"/>
</svg>
