<svg width="32" height="32" viewBox="0 0 32 32" fill="none" xmlns="http://www.w3.org/2000/svg">
<path d="M28.0001 15.9996C28.0001 16.2648 27.8947 16.5192 27.7072 16.7067C27.5196 16.8942 27.2653 16.9996 27.0001 16.9996H7.4138L14.7076 24.2921C14.8005 24.385 14.8742 24.4953 14.9244 24.6167C14.9747 24.7381 15.0006 24.8682 15.0006 24.9996C15.0006 25.131 14.9747 25.2611 14.9244 25.3825C14.8742 25.5039 14.8005 25.6142 14.7076 25.7071C14.6146 25.8 14.5043 25.8737 14.383 25.924C14.2616 25.9743 14.1314 26.0001 14.0001 26.0001C13.8687 26.0001 13.7386 25.9743 13.6172 25.924C13.4958 25.8737 13.3855 25.8 13.2926 25.7071L4.29255 16.7071C4.19958 16.6142 4.12582 16.5039 4.07549 16.3825C4.02517 16.2611 3.99927 16.131 3.99927 15.9996C3.99927 15.8682 4.02517 15.738 4.07549 15.6166C4.12582 15.4952 4.19958 15.385 4.29255 15.2921L13.2926 6.29208C13.4802 6.10444 13.7347 5.99902 14.0001 5.99902C14.2654 5.99902 14.5199 6.10444 14.7076 6.29208C14.8952 6.47972 15.0006 6.73422 15.0006 6.99958C15.0006 7.26494 14.8952 7.51944 14.7076 7.70708L7.4138 14.9996H27.0001C27.2653 14.9996 27.5196 15.1049 27.7072 15.2925C27.8947 15.48 28.0001 15.7344 28.0001 15.9996Z" fill="currentColor"/>
</svg>
