<svg width="25" height="24" viewBox="0 0 25 24" fill="none" xmlns="http://www.w3.org/2000/svg">
<path d="M19.9999 10.5C19.4577 10.4998 18.9199 10.5979 18.4127 10.7897L16.0559 6.75H18.4999C18.6988 6.75 18.8896 6.82902 19.0303 6.96967C19.1709 7.11032 19.2499 7.30109 19.2499 7.5C19.2499 7.69891 19.3289 7.88968 19.4696 8.03033C19.6102 8.17098 19.801 8.25 19.9999 8.25C20.1988 8.25 20.3896 8.17098 20.5303 8.03033C20.6709 7.88968 20.7499 7.69891 20.7499 7.5C20.7499 6.90326 20.5129 6.33097 20.0909 5.90901C19.669 5.48705 19.0967 5.25 18.4999 5.25H14.7499C14.6184 5.2503 14.4893 5.28517 14.3755 5.35112C14.2617 5.41707 14.1673 5.51177 14.1017 5.62574C14.0361 5.7397 14.0016 5.86892 14.0016 6.00043C14.0017 6.13193 14.0364 6.26111 14.1021 6.375L15.1943 8.25H9.80555L8.27273 5.625C8.20705 5.51124 8.11264 5.41672 7.99895 5.35091C7.88526 5.2851 7.75628 5.2503 7.62492 5.25H4.99992C4.80101 5.25 4.61024 5.32902 4.46959 5.46967C4.32894 5.61032 4.24992 5.80109 4.24992 6C4.24992 6.19891 4.32894 6.38968 4.46959 6.53033C4.61024 6.67098 4.80101 6.75 4.99992 6.75H7.19461L8.47992 8.95406L7.00711 10.9744C5.99519 10.468 4.82994 10.3603 3.74234 10.6726C2.65474 10.9849 1.72419 11.6945 1.13515 12.6607C0.546113 13.6268 0.341589 14.779 0.562121 15.8889C0.782653 16.9987 1.41214 17.9852 2.3258 18.6528C3.23947 19.3204 4.3706 19.6203 5.49499 19.4931C6.61938 19.3659 7.65493 18.8209 8.39638 17.9661C9.13782 17.1113 9.53103 16.0091 9.49806 14.878C9.46509 13.7469 9.00834 12.6695 8.21836 11.8594L9.30492 10.3687L12.2271 15.375C12.2728 15.4667 12.3367 15.5481 12.4151 15.6141C12.4934 15.6802 12.5844 15.7295 12.6826 15.759C12.7807 15.7885 12.8838 15.7975 12.9856 15.7857C13.0873 15.7738 13.1856 15.7411 13.2742 15.6898C13.3629 15.6385 13.4401 15.5695 13.5011 15.4872C13.5621 15.4049 13.6056 15.3109 13.6289 15.2112C13.6522 15.1114 13.6547 15.0079 13.6365 14.9071C13.6182 14.8063 13.5795 14.7103 13.5227 14.625L10.6802 9.75H16.069L17.118 11.5472C16.3059 12.226 15.759 13.1694 15.5735 14.2115C15.388 15.2537 15.5759 16.3278 16.104 17.2452C16.6321 18.1625 17.4667 18.8643 18.4611 19.2273C19.4554 19.5902 20.5459 19.5909 21.5407 19.2294C22.5356 18.8679 23.3712 18.1673 23.9006 17.2507C24.43 16.3341 24.6194 15.2602 24.4354 14.2178C24.2514 13.1754 23.7058 12.2312 22.8946 11.5513C22.0834 10.8713 21.0584 10.4991 19.9999 10.5ZM7.99992 15C8.0001 15.6417 7.79453 16.2665 7.4134 16.7827C7.03228 17.2989 6.49568 17.6793 5.8824 17.8681C5.26912 18.0569 4.61147 18.044 4.00604 17.8314C3.40061 17.6188 2.87929 17.2177 2.51863 16.687C2.15797 16.1563 1.97699 15.5239 2.00225 14.8827C2.02751 14.2416 2.25768 13.6254 2.65897 13.1247C3.06026 12.624 3.61152 12.2651 4.23181 12.1008C4.85209 11.9365 5.5087 11.9755 6.10523 12.2119L4.3943 14.5556C4.332 14.6349 4.28632 14.7258 4.25997 14.8231C4.23362 14.9204 4.22715 15.022 4.24094 15.1218C4.25473 15.2216 4.2885 15.3177 4.34023 15.4042C4.39196 15.4907 4.46059 15.5658 4.54203 15.6252C4.62347 15.6846 4.71603 15.7269 4.8142 15.7497C4.91237 15.7725 5.01413 15.7753 5.1134 15.7579C5.21267 15.7405 5.30741 15.7033 5.39197 15.6484C5.47653 15.5936 5.54916 15.5223 5.60555 15.4387L7.31648 13.095C7.75891 13.6312 8.00058 14.3048 7.99992 15ZM19.9999 18C19.4057 17.9995 18.825 17.8227 18.3315 17.4917C17.838 17.1608 17.4538 16.6908 17.2278 16.1413C17.0017 15.5918 16.944 14.9875 17.0618 14.4051C17.1796 13.8227 17.4677 13.2884 17.8896 12.87L19.3521 15.375C19.3978 15.4667 19.4617 15.5481 19.5401 15.6141C19.6184 15.6802 19.7094 15.7295 19.8076 15.759C19.9057 15.7885 20.0088 15.7975 20.1106 15.7857C20.2123 15.7738 20.3106 15.7411 20.3992 15.6898C20.4879 15.6385 20.5651 15.5695 20.6261 15.4872C20.6871 15.4049 20.7306 15.3109 20.7539 15.2112C20.7772 15.1114 20.7797 15.0079 20.7615 14.9071C20.7432 14.8063 20.7045 14.7103 20.6477 14.625L19.1843 12.1134C19.597 11.9966 20.0299 11.9696 20.4538 12.0343C20.8778 12.099 21.283 12.2538 21.6421 12.4883C22.0011 12.7229 22.3057 13.0317 22.5353 13.3939C22.7649 13.7562 22.9142 14.1634 22.9731 14.5883C23.0319 15.0131 22.999 15.4456 22.8766 15.8566C22.7541 16.2676 22.5449 16.6476 22.2632 16.971C21.9814 17.2943 21.6336 17.5535 21.2432 17.731C20.8527 17.9085 20.4288 18.0002 19.9999 18Z" fill="currentColor"/>
</svg>
