<svg width="25" height="24" viewBox="0 0 25 24" fill="none" xmlns="http://www.w3.org/2000/svg">
<path d="M23 10.5H21.9875L19.3831 4.64062C19.2653 4.37553 19.0731 4.15029 18.8298 3.99222C18.5865 3.83414 18.3026 3.75 18.0125 3.75H6.9875C6.69738 3.75 6.41349 3.83414 6.17022 3.99222C5.92695 4.15029 5.73474 4.37553 5.61688 4.64062L3.0125 10.5H2C1.80109 10.5 1.61032 10.579 1.46967 10.7197C1.32902 10.8603 1.25 11.0511 1.25 11.25C1.25 11.4489 1.32902 11.6397 1.46967 11.7803C1.61032 11.921 1.80109 12 2 12H2.75V19.5C2.75 19.8978 2.90804 20.2794 3.18934 20.5607C3.47064 20.842 3.85218 21 4.25 21H6.5C6.89782 21 7.27936 20.842 7.56066 20.5607C7.84196 20.2794 8 19.8978 8 19.5V18H17V19.5C17 19.8978 17.158 20.2794 17.4393 20.5607C17.7206 20.842 18.1022 21 18.5 21H20.75C21.1478 21 21.5294 20.842 21.8107 20.5607C22.092 20.2794 22.25 19.8978 22.25 19.5V12H23C23.1989 12 23.3897 11.921 23.5303 11.7803C23.671 11.6397 23.75 11.4489 23.75 11.25C23.75 11.0511 23.671 10.8603 23.5303 10.7197C23.3897 10.579 23.1989 10.5 23 10.5ZM6.9875 5.25H18.0125L20.3459 10.5H4.65406L6.9875 5.25ZM20.75 19.5H18.5V17.25C18.5 17.0511 18.421 16.8603 18.2803 16.7197C18.1397 16.579 17.9489 16.5 17.75 16.5H7.25C7.05109 16.5 6.86032 16.579 6.71967 16.7197C6.57902 16.8603 6.5 17.0511 6.5 17.25V19.5H4.25V12H20.75V19.5Z" fill="black" fill-opacity="0.54"/>
<path d="M21.9304 10.5254L21.9469 10.5625H21.9875H23C23.1823 10.5625 23.3572 10.6349 23.4861 10.7639C23.6151 10.8928 23.6875 11.0677 23.6875 11.25C23.6875 11.4323 23.6151 11.6072 23.4861 11.7361C23.3572 11.8651 23.1823 11.9375 23 11.9375H22.25H22.1875V12V19.5C22.1875 19.8812 22.036 20.2469 21.7665 20.5165C21.4969 20.786 21.1312 20.9375 20.75 20.9375H18.5C18.1188 20.9375 17.7531 20.786 17.4835 20.5165C17.214 20.2469 17.0625 19.8812 17.0625 19.5V18V17.9375H17H8H7.9375V18V19.5C7.9375 19.8812 7.78605 20.2469 7.51647 20.5165C7.24688 20.786 6.88125 20.9375 6.5 20.9375H4.25C3.86875 20.9375 3.50312 20.786 3.23353 20.5165C2.96395 20.2469 2.8125 19.8812 2.8125 19.5V12V11.9375H2.75H2C1.81766 11.9375 1.6428 11.8651 1.51386 11.7361C1.38493 11.6072 1.3125 11.4323 1.3125 11.25C1.3125 11.0677 1.38493 10.8928 1.51386 10.7639C1.6428 10.6349 1.81766 10.5625 2 10.5625H3.0125H3.05312L3.06961 10.5254L5.67399 4.66602C5.67399 4.66601 5.67399 4.66601 5.67399 4.66601C5.78694 4.41196 5.97114 4.19611 6.20427 4.04462C6.43741 3.89313 6.70947 3.8125 6.9875 3.8125H18.0125C18.2905 3.8125 18.5626 3.89313 18.7957 4.04462C19.0289 4.19611 19.2131 4.41196 19.326 4.66601L21.9304 10.5254ZM6.9875 5.1875H6.94688L6.93039 5.22462L4.59695 10.4746L4.55789 10.5625H4.65406H20.3459H20.4421L20.4031 10.4746L18.0696 5.22462L18.0531 5.1875H18.0125H6.9875ZM20.75 19.5625H20.8125V19.5V12V11.9375H20.75H4.25H4.1875V12V19.5V19.5625H4.25H6.5H6.5625V19.5V17.25C6.5625 17.0677 6.63493 16.8928 6.76386 16.7639C6.8928 16.6349 7.06766 16.5625 7.25 16.5625H17.75C17.9323 16.5625 18.1072 16.6349 18.2361 16.7639C18.3651 16.8928 18.4375 17.0677 18.4375 17.25V19.5V19.5625H18.5H20.75Z" stroke="black" stroke-opacity="0.54" stroke-width="0.125"/>
</svg>
