<svg width="25" height="24" viewBox="0 0 25 24" fill="none" xmlns="http://www.w3.org/2000/svg">
<path d="M21.9304 10.5254L21.9469 10.5625H21.9875H23C23.1823 10.5625 23.3572 10.6349 23.4861 10.7639C23.6151 10.8928 23.6875 11.0677 23.6875 11.25C23.6875 11.4323 23.6151 11.6072 23.4861 11.7361C23.3572 11.8651 23.1823 11.9375 23 11.9375H22.25H22.1875V12V19.5C22.1875 19.8812 22.036 20.2469 21.7665 20.5165C21.4969 20.786 21.1312 20.9375 20.75 20.9375H18.5C18.1188 20.9375 17.7531 20.786 17.4835 20.5165C17.214 20.2469 17.0625 19.8812 17.0625 19.5V18V17.9375H17H8H7.9375V18V19.5C7.9375 19.8812 7.78605 20.2469 7.51647 20.5165C7.24688 20.786 6.88125 20.9375 6.5 20.9375H4.25C3.86875 20.9375 3.50312 20.786 3.23353 20.5165C2.96395 20.2469 2.8125 19.8812 2.8125 19.5V12V11.9375H2.75H2C1.81766 11.9375 1.6428 11.8651 1.51386 11.7361C1.38493 11.6072 1.3125 11.4323 1.3125 11.25C1.3125 11.0677 1.38493 10.8928 1.51386 10.7639C1.6428 10.6349 1.81766 10.5625 2 10.5625H3.0125H3.05312L3.06961 10.5254L5.67399 4.66602C5.67399 4.66601 5.67399 4.66601 5.67399 4.66601C5.78694 4.41196 5.97114 4.19611 6.20427 4.04462C6.43741 3.89313 6.70947 3.8125 6.9875 3.8125H18.0125C18.2905 3.8125 18.5626 3.89313 18.7957 4.04462C19.0289 4.19611 19.2131 4.41196 19.326 4.66601L21.9304 10.5254Z" fill="currentColor" stroke="currentColor" stroke-width="0.125"/>
</svg>
