<svg width="25" height="24" viewBox="0 0 25 24" fill="none" xmlns="http://www.w3.org/2000/svg">
<path d="M23 10.5H20.3103L16.25 6.4397C16.1112 6.2998 15.946 6.18889 15.764 6.11341C15.582 6.03792 15.3867 5.99938 15.1897 6.00001H4.65125C4.40487 6.00046 4.16239 6.0616 3.94525 6.17802C3.72811 6.29444 3.54299 6.46256 3.40625 6.66751L0.625625 10.8338C0.543924 10.9572 0.500245 11.102 0.5 11.25L0.5 15.75C0.5 16.1478 0.658035 16.5294 0.93934 16.8107C1.22064 17.092 1.60218 17.25 2 17.25H3.59375C3.75898 17.8953 4.13428 18.4673 4.66048 18.8757C5.18669 19.2842 5.83387 19.5059 6.5 19.5059C7.16613 19.5059 7.81331 19.2842 8.33952 18.8757C8.86572 18.4673 9.24102 17.8953 9.40625 17.25H15.5938C15.759 17.8953 16.1343 18.4673 16.6605 18.8757C17.1867 19.2842 17.8339 19.5059 18.5 19.5059C19.1661 19.5059 19.8133 19.2842 20.3395 18.8757C20.8657 18.4673 21.241 17.8953 21.4062 17.25H23C23.3978 17.25 23.7794 17.092 24.0607 16.8107C24.342 16.5294 24.5 16.1478 24.5 15.75V12C24.5 11.6022 24.342 11.2207 24.0607 10.9393C23.7794 10.658 23.3978 10.5 23 10.5ZM4.65125 7.50001H15.1897L18.1897 10.5H2.65625L4.65125 7.50001ZM6.5 18C6.20333 18 5.91332 17.912 5.66665 17.7472C5.41997 17.5824 5.22771 17.3481 5.11418 17.074C5.00065 16.7999 4.97094 16.4983 5.02882 16.2074C5.0867 15.9164 5.22956 15.6491 5.43934 15.4393C5.64912 15.2296 5.91639 15.0867 6.20736 15.0288C6.49834 14.971 6.79994 15.0007 7.07403 15.1142C7.34811 15.2277 7.58238 15.42 7.7472 15.6667C7.91203 15.9133 8 16.2033 8 16.5C8 16.8978 7.84196 17.2794 7.56066 17.5607C7.27936 17.842 6.89782 18 6.5 18ZM18.5 18C18.2033 18 17.9133 17.912 17.6666 17.7472C17.42 17.5824 17.2277 17.3481 17.1142 17.074C17.0006 16.7999 16.9709 16.4983 17.0288 16.2074C17.0867 15.9164 17.2296 15.6491 17.4393 15.4393C17.6491 15.2296 17.9164 15.0867 18.2074 15.0288C18.4983 14.971 18.7999 15.0007 19.074 15.1142C19.3481 15.2277 19.5824 15.42 19.7472 15.6667C19.912 15.9133 20 16.2033 20 16.5C20 16.8978 19.842 17.2794 19.5607 17.5607C19.2794 17.842 18.8978 18 18.5 18Z" fill="currentColor"/>
</svg>
