<svg width="25" height="24" viewBox="0 0 25 24" fill="none" xmlns="http://www.w3.org/2000/svg">
<path d="M17.5307 12.531L10.0307 20.031C9.96099 20.1007 9.87827 20.156 9.78722 20.1937C9.69618 20.2314 9.5986 20.2508 9.50005 20.2508C9.4015 20.2508 9.30392 20.2314 9.21288 20.1937C9.12183 20.156 9.03911 20.1007 8.96943 20.031C8.89974 19.9614 8.84447 19.8786 8.80676 19.7876C8.76904 19.6965 8.74963 19.599 8.74963 19.5004C8.74963 19.4019 8.76904 19.3043 8.80676 19.2132C8.84447 19.1222 8.89974 19.0395 8.96943 18.9698L15.9397 12.0004L8.96943 5.03104C8.82869 4.89031 8.74963 4.69944 8.74963 4.50042C8.74963 4.30139 8.82869 4.11052 8.96943 3.96979C9.11016 3.82906 9.30103 3.75 9.50005 3.75C9.69907 3.75 9.88995 3.82906 10.0307 3.96979L17.5307 11.4698C17.6004 11.5394 17.6557 11.6222 17.6935 11.7132C17.7312 11.8043 17.7506 11.9019 17.7506 12.0004C17.7506 12.099 17.7312 12.1966 17.6935 12.2876C17.6557 12.3787 17.6004 12.4614 17.5307 12.531Z" fill="currentColor"/>
</svg>
