<svg width="25" height="24" viewBox="0 0 25 24" fill="none" xmlns="http://www.w3.org/2000/svg">
<path d="M15.8501 10.4999C15.8501 10.6988 15.7711 10.8896 15.6304 11.0302C15.4898 11.1709 15.299 11.2499 15.1001 11.2499H9.1001C8.90119 11.2499 8.71042 11.1709 8.56977 11.0302C8.42912 10.8896 8.3501 10.6988 8.3501 10.4999C8.3501 10.301 8.42912 10.1102 8.56977 9.96958C8.71042 9.82892 8.90119 9.74991 9.1001 9.74991H15.1001C15.299 9.74991 15.4898 9.82892 15.6304 9.96958C15.7711 10.1102 15.8501 10.301 15.8501 10.4999ZM15.1001 12.7499H9.1001C8.90119 12.7499 8.71042 12.8289 8.56977 12.9696C8.42912 13.1102 8.3501 13.301 8.3501 13.4999C8.3501 13.6988 8.42912 13.8896 8.56977 14.0302C8.71042 14.1709 8.90119 14.2499 9.1001 14.2499H15.1001C15.299 14.2499 15.4898 14.1709 15.6304 14.0302C15.7711 13.8896 15.8501 13.6988 15.8501 13.4999C15.8501 13.301 15.7711 13.1102 15.6304 12.9696C15.4898 12.8289 15.299 12.7499 15.1001 12.7499ZM21.8501 11.9999C21.8505 13.6832 21.415 15.338 20.5861 16.803C19.7573 18.2681 18.5632 19.4937 17.1201 20.3604C15.6771 21.2271 14.0342 21.7054 12.3515 21.7488C10.6687 21.7922 9.0034 21.3992 7.5176 20.608L4.32541 21.6721C4.06112 21.7602 3.7775 21.773 3.50634 21.709C3.23519 21.645 2.98721 21.5068 2.79021 21.3098C2.59321 21.1128 2.45496 20.8648 2.39097 20.5937C2.32698 20.3225 2.33977 20.0389 2.42791 19.7746L3.49197 16.5824C2.79649 15.2748 2.40803 13.826 2.3561 12.3458C2.30416 10.8657 2.5901 9.39316 3.19223 8.04003C3.79435 6.6869 4.69682 5.48873 5.83115 4.53646C6.96547 3.58419 8.30183 2.90285 9.73879 2.54416C11.1757 2.18548 12.6755 2.15886 14.1243 2.46635C15.5731 2.77383 16.9328 3.40733 18.1002 4.31875C19.2676 5.23018 20.212 6.39558 20.8617 7.7265C21.5115 9.05741 21.8495 10.5189 21.8501 11.9999ZM20.3501 11.9999C20.3497 10.7344 20.0583 9.48593 19.4982 8.3511C18.9381 7.21627 18.1245 6.2255 17.1202 5.45544C16.116 4.68537 14.948 4.15666 13.7068 3.91021C12.4655 3.66375 11.1841 3.70616 9.96188 4.03415C8.73961 4.36215 7.60919 4.96693 6.65805 5.80171C5.70692 6.6365 4.96058 7.6789 4.47678 8.84828C3.99298 10.0177 3.78468 11.2827 3.868 12.5454C3.95132 13.8082 4.32403 15.0349 4.95728 16.1305C5.01043 16.2225 5.04344 16.3247 5.0541 16.4304C5.06477 16.5361 5.05286 16.6429 5.01916 16.7437L3.8501 20.2499L7.35635 19.0808C7.43272 19.0548 7.51285 19.0415 7.59353 19.0415C7.72526 19.0417 7.8546 19.0766 7.96853 19.1427C9.22272 19.8684 10.6459 20.2509 12.0949 20.2518C13.5439 20.2527 14.9675 19.872 16.2226 19.1479C17.4777 18.4239 18.52 17.382 19.2446 16.1272C19.9691 14.8724 20.3504 13.4489 20.3501 11.9999Z" fill="black" fill-opacity="0.54"/>
<path d="M7.54697 20.5529L7.52329 20.5403L7.49783 20.5487L4.30565 21.6128C4.05236 21.6973 3.78055 21.7095 3.5207 21.6482C3.26084 21.5869 3.0232 21.4544 2.8344 21.2656C2.64561 21.0768 2.51312 20.8392 2.4518 20.5793C2.39047 20.3194 2.40273 20.0476 2.4872 19.7944L2.42792 19.7746L2.4872 19.7944L3.55127 16.6022L3.55974 16.5767L3.54715 16.5531C2.85613 15.2538 2.47016 13.8143 2.41856 12.3436C2.36695 10.873 2.65106 9.4099 3.24933 8.06544C3.84759 6.72099 4.74428 5.53049 5.87133 4.58433C6.99838 3.63816 8.32618 2.96119 9.75392 2.6048C11.1817 2.24841 12.6718 2.22197 14.1113 2.52748C15.5508 2.833 16.9018 3.46243 18.0617 4.36802C19.2216 5.2736 20.16 6.43153 20.8056 7.75391C21.4512 9.0763 21.787 10.5284 21.7876 11.9999C21.788 13.6724 21.3553 15.3166 20.5317 16.7723C19.7082 18.228 18.5217 19.4457 17.088 20.3068C15.6542 21.1679 14.0218 21.6432 12.3499 21.6863C10.6779 21.7294 9.02325 21.3389 7.54697 20.5529ZM4.95989 16.7238L4.95987 16.7239L3.79081 20.2301L3.75126 20.3487L3.86987 20.3092L7.37612 19.1401L7.37652 19.14C7.4464 19.1162 7.51973 19.104 7.59356 19.104L7.59353 19.0415L7.59342 19.104C7.71417 19.1042 7.83273 19.1362 7.93717 19.1968L7.93724 19.1968C9.20092 19.928 10.6349 20.3134 12.0948 20.3143C13.5548 20.3152 14.9893 19.9316 16.2539 19.2021C17.5185 18.4725 18.5686 17.4228 19.2987 16.1585C20.0287 14.8941 20.4129 13.4598 20.4126 11.9999C20.4122 10.7248 20.1185 9.46687 19.5542 8.32344C18.9899 7.18002 18.1701 6.18174 17.1583 5.40584C16.1464 4.62994 14.9696 4.09723 13.7189 3.8489C12.4683 3.60058 11.1772 3.64331 9.94568 3.97379C8.71415 4.30427 7.57516 4.91363 6.61683 5.75474C5.65849 6.59585 4.9065 7.64615 4.41903 8.82438C3.93156 10.0026 3.72168 11.2772 3.80563 12.5495C3.88959 13.8219 4.26512 15.0578 4.90317 16.1618C4.95189 16.2461 4.98214 16.3398 4.99192 16.4367C5.0017 16.5336 4.99078 16.6315 4.95989 16.7238ZM15.7876 10.4999C15.7876 10.6822 15.7152 10.8571 15.5862 10.986C15.4573 11.115 15.2824 11.1874 15.1001 11.1874H9.1001C8.91776 11.1874 8.74289 11.115 8.61396 10.986C8.48503 10.8571 8.4126 10.6822 8.4126 10.4999C8.4126 10.3176 8.48503 10.1427 8.61396 10.0138C8.74289 9.88484 8.91776 9.81241 9.1001 9.81241H15.1001C15.2824 9.81241 15.4573 9.88484 15.5862 10.0138C15.7152 10.1427 15.7876 10.3176 15.7876 10.4999ZM9.1001 12.8124H15.1001C15.2824 12.8124 15.4573 12.8848 15.5862 13.0138C15.7152 13.1427 15.7876 13.3176 15.7876 13.4999C15.7876 13.6822 15.7152 13.8571 15.5862 13.986C15.4573 14.115 15.2824 14.1874 15.1001 14.1874H9.1001C8.91776 14.1874 8.74289 14.115 8.61396 13.986C8.48503 13.8571 8.4126 13.6822 8.4126 13.4999C8.4126 13.3176 8.48503 13.1427 8.61396 13.0138C8.74289 12.8848 8.91776 12.8124 9.1001 12.8124Z" stroke="black" stroke-opacity="0.54" stroke-width="0.125"/>
</svg>
