<svg width="21" height="20" viewBox="0 0 21 20" fill="none" xmlns="http://www.w3.org/2000/svg">
<path d="M10.5 0.25C8.81669 0.249633 7.16195 0.685083 5.69686 1.51396C4.23177 2.34285 3.00623 3.53692 2.13954 4.97997C1.27284 6.42301 0.794514 8.06587 0.751113 9.74862C0.707713 11.4314 1.10072 13.0967 1.89187 14.5825L0.827812 17.7747C0.739673 18.039 0.726882 18.3226 0.790872 18.5938C0.854863 18.8649 0.993108 19.1129 1.19011 19.3099C1.38711 19.5069 1.63509 19.6451 1.90624 19.7091C2.1774 19.7731 2.46102 19.7603 2.72531 19.6722L5.9175 18.6081C7.2251 19.3036 8.67395 19.6921 10.1541 19.744C11.6342 19.7959 13.1067 19.51 14.4599 18.9079C15.813 18.3057 17.0112 17.4033 17.9634 16.269C18.9157 15.1346 19.5971 13.7983 19.9557 12.3613C20.3144 10.9244 20.341 9.42456 20.0336 7.97578C19.7261 6.52701 19.0926 5.16732 18.1812 3.99992C17.2697 2.83253 16.1043 1.88811 14.7734 1.23836C13.4425 0.588614 11.981 0.250608 10.5 0.25ZM13.5 12.25H7.5C7.30109 12.25 7.11032 12.171 6.96967 12.0303C6.82902 11.8897 6.75 11.6989 6.75 11.5C6.75 11.3011 6.82902 11.1103 6.96967 10.9697C7.11032 10.829 7.30109 10.75 7.5 10.75H13.5C13.6989 10.75 13.8897 10.829 14.0303 10.9697C14.171 11.1103 14.25 11.3011 14.25 11.5C14.25 11.6989 14.171 11.8897 14.0303 12.0303C13.8897 12.171 13.6989 12.25 13.5 12.25ZM13.5 9.25H7.5C7.30109 9.25 7.11032 9.17098 6.96967 9.03033C6.82902 8.88968 6.75 8.69891 6.75 8.5C6.75 8.30109 6.82902 8.11032 6.96967 7.96967C7.11032 7.82902 7.30109 7.75 7.5 7.75H13.5C13.6989 7.75 13.8897 7.82902 14.0303 7.96967C14.171 8.11032 14.25 8.30109 14.25 8.5C14.25 8.69891 14.171 8.88968 14.0303 9.03033C13.8897 9.17098 13.6989 9.25 13.5 9.25Z" fill="currentColor"/>
</svg>
