<svg width="14" height="14" viewBox="0 0 14 14" fill="none" xmlns="http://www.w3.org/2000/svg">
<path d="M7 0.625C5.73915 0.625 4.50661 0.998887 3.45824 1.69938C2.40988 2.39988 1.59278 3.39551 1.11027 4.56039C0.627762 5.72527 0.501516 7.00707 0.747497 8.2437C0.993478 9.48033 1.60064 10.6162 2.4922 11.5078C3.38376 12.3994 4.51967 13.0065 5.7563 13.2525C6.99293 13.4985 8.27473 13.3722 9.43961 12.8897C10.6045 12.4072 11.6001 11.5901 12.3006 10.5418C13.0011 9.4934 13.375 8.26086 13.375 7C13.373 5.30985 12.7007 3.6895 11.5056 2.49439C10.3105 1.29927 8.69015 0.626985 7 0.625ZM7 12.625C5.88748 12.625 4.79995 12.2951 3.87492 11.677C2.94989 11.0589 2.22892 10.1804 1.80318 9.15259C1.37744 8.12476 1.26604 6.99376 1.48309 5.90262C1.70013 4.81147 2.23586 3.80919 3.02253 3.02252C3.8092 2.23585 4.81148 1.70012 5.90262 1.48308C6.99376 1.26604 8.12476 1.37743 9.1526 1.80318C10.1804 2.22892 11.0589 2.94989 11.677 3.87492C12.2951 4.79994 12.625 5.88748 12.625 7C12.6233 8.49133 12.0302 9.92111 10.9757 10.9756C9.92112 12.0302 8.49134 12.6233 7 12.625ZM10.875 7C10.875 7.09946 10.8355 7.19484 10.7652 7.26517C10.6948 7.33549 10.5995 7.375 10.5 7.375H7C6.90055 7.375 6.80516 7.33549 6.73484 7.26517C6.66451 7.19484 6.625 7.09946 6.625 7V3.5C6.625 3.40054 6.66451 3.30516 6.73484 3.23484C6.80516 3.16451 6.90055 3.125 7 3.125C7.09946 3.125 7.19484 3.16451 7.26517 3.23484C7.33549 3.30516 7.375 3.40054 7.375 3.5V6.625H10.5C10.5995 6.625 10.6948 6.66451 10.7652 6.73484C10.8355 6.80516 10.875 6.90054 10.875 7Z" fill="currentColor" />
</svg>
