<svg width="18" height="20" viewBox="0 0 18 20" fill="none" xmlns="http://www.w3.org/2000/svg">
<path d="M17.0306 5.71938L11.7806 0.469375C11.7109 0.399749 11.6282 0.344539 11.5371 0.306898C11.4461 0.269257 11.3485 0.249923 11.25 0.25H2.25C1.85218 0.25 1.47064 0.408035 1.18934 0.68934C0.908035 0.970645 0.75 1.35218 0.75 1.75V18.25C0.75 18.6478 0.908035 19.0294 1.18934 19.3107C1.47064 19.592 1.85218 19.75 2.25 19.75H15.75C16.1478 19.75 16.5294 19.592 16.8107 19.3107C17.092 19.0294 17.25 18.6478 17.25 18.25V6.25C17.2501 6.15148 17.2307 6.05391 17.1931 5.96286C17.1555 5.87182 17.1003 5.78908 17.0306 5.71938ZM12 2.81031L14.6897 5.5H12V2.81031ZM15.75 18.25H2.25V1.75H10.5V6.25C10.5 6.44891 10.579 6.63968 10.7197 6.78033C10.8603 6.92098 11.0511 7 11.25 7H15.75V18.25ZM11.7806 10.5306L10.0603 12.25L11.7806 13.9694C11.8503 14.0391 11.9056 14.1218 11.9433 14.2128C11.981 14.3039 12.0004 14.4015 12.0004 14.5C12.0004 14.5985 11.981 14.6961 11.9433 14.7872C11.9056 14.8782 11.8503 14.9609 11.7806 15.0306C11.7109 15.1003 11.6282 15.1556 11.5372 15.1933C11.4461 15.231 11.3485 15.2504 11.25 15.2504C11.1515 15.2504 11.0539 15.231 10.9628 15.1933C10.8718 15.1556 10.7891 15.1003 10.7194 15.0306L9 13.3103L7.28063 15.0306C7.21094 15.1003 7.12822 15.1556 7.03717 15.1933C6.94613 15.231 6.84855 15.2504 6.75 15.2504C6.65145 15.2504 6.55387 15.231 6.46283 15.1933C6.37178 15.1556 6.28906 15.1003 6.21937 15.0306C6.14969 14.9609 6.09442 14.8782 6.0567 14.7872C6.01899 14.6961 5.99958 14.5985 5.99958 14.5C5.99958 14.4015 6.01899 14.3039 6.0567 14.2128C6.09442 14.1218 6.14969 14.0391 6.21937 13.9694L7.93969 12.25L6.21937 10.5306C6.07864 10.3899 5.99958 10.199 5.99958 10C5.99958 9.80098 6.07864 9.61011 6.21937 9.46937C6.36011 9.32864 6.55098 9.24958 6.75 9.24958C6.94902 9.24958 7.13989 9.32864 7.28063 9.46937L9 11.1897L10.7194 9.46937C10.7891 9.39969 10.8718 9.34442 10.9628 9.3067C11.0539 9.26899 11.1515 9.24958 11.25 9.24958C11.3485 9.24958 11.4461 9.26899 11.5372 9.3067C11.6282 9.34442 11.7109 9.39969 11.7806 9.46937C11.8503 9.53906 11.9056 9.62178 11.9433 9.71283C11.981 9.80387 12.0004 9.90145 12.0004 10C12.0004 10.0985 11.981 10.1961 11.9433 10.2872C11.9056 10.3782 11.8503 10.4609 11.7806 10.5306Z" fill="#F44336"/>
</svg>
