<svg width="18" height="20" viewBox="0 0 18 20" fill="none" xmlns="http://www.w3.org/2000/svg">
<path d="M17.25 9.5001V18.5001C17.25 18.8979 17.092 19.2795 16.8107 19.5608C16.5294 19.8421 16.1478 20.0001 15.75 20.0001H2.25C1.85218 20.0001 1.47064 19.8421 1.18934 19.5608C0.908035 19.2795 0.75 18.8979 0.75 18.5001V9.5001C0.75 9.10228 0.908035 8.72075 1.18934 8.43944C1.47064 8.15814 1.85218 8.0001 2.25 8.0001H4.5C4.69891 8.0001 4.88968 8.07912 5.03033 8.21977C5.17098 8.36042 5.25 8.55119 5.25 8.7501C5.25 8.94901 5.17098 9.13978 5.03033 9.28043C4.88968 9.42108 4.69891 9.5001 4.5 9.5001H2.25V18.5001H15.75V9.5001H13.5C13.3011 9.5001 13.1103 9.42108 12.9697 9.28043C12.829 9.13978 12.75 8.94901 12.75 8.7501C12.75 8.55119 12.829 8.36042 12.9697 8.21977C13.1103 8.07912 13.3011 8.0001 13.5 8.0001H15.75C16.1478 8.0001 16.5294 8.15814 16.8107 8.43944C17.092 8.72075 17.25 9.10228 17.25 9.5001ZM5.78063 5.53073L8.25 3.06041V11.7501C8.25 11.949 8.32902 12.1398 8.46967 12.2804C8.61032 12.4211 8.80109 12.5001 9 12.5001C9.19891 12.5001 9.38968 12.4211 9.53033 12.2804C9.67098 12.1398 9.75 11.949 9.75 11.7501V3.06041L12.2194 5.53073C12.3601 5.67146 12.551 5.75052 12.75 5.75052C12.949 5.75052 13.1399 5.67146 13.2806 5.53073C13.4214 5.39 13.5004 5.19912 13.5004 5.0001C13.5004 4.80108 13.4214 4.61021 13.2806 4.46948L9.53063 0.719477C9.46097 0.649744 9.37825 0.594425 9.2872 0.556682C9.19616 0.518939 9.09856 0.499512 9 0.499512C8.90144 0.499512 8.80384 0.518939 8.71279 0.556682C8.62175 0.594425 8.53903 0.649744 8.46937 0.719477L4.71937 4.46948C4.57864 4.61021 4.49958 4.80108 4.49958 5.0001C4.49958 5.19912 4.57864 5.39 4.71938 5.53073C4.86011 5.67146 5.05098 5.75052 5.25 5.75052C5.44902 5.75052 5.63989 5.67146 5.78063 5.53073Z" fill="black"/>
</svg>
