<svg width="22" height="19" viewBox="0 0 22 19" fill="none" xmlns="http://www.w3.org/2000/svg">
<path fill-rule="evenodd" clip-rule="evenodd" d="M10.5351 6.19995C8.96929 6.19995 7.70508 7.46416 7.70508 9.02995C7.70508 10.5957 8.96929 11.86 10.5351 11.86C12.1009 11.86 13.3651 10.5957 13.3651 9.02995C13.3651 7.46416 12.1009 6.19995 10.5351 6.19995ZM6.20508 9.02995C6.20508 6.63574 8.14086 4.69995 10.5351 4.69995C12.9293 4.69995 14.8651 6.63574 14.8651 9.02995C14.8651 11.4242 12.9293 13.36 10.5351 13.36C8.14086 13.36 6.20508 11.4242 6.20508 9.02995Z" fill="black" fill-opacity="0.56"/>
<path fill-rule="evenodd" clip-rule="evenodd" d="M0.792495 6.02696C3.18341 2.2686 6.68702 0 10.535 0C14.3831 0 17.8869 2.2688 20.2778 6.02746C20.8228 6.8818 21.07 7.97616 21.07 9.025C21.07 10.0738 20.8228 11.1682 20.2778 12.0225C17.8869 15.7812 14.3831 18.05 10.535 18.05C6.68685 18.05 3.18311 15.7812 0.792181 12.0225C0.247204 11.1682 0 10.0738 0 9.025C0 7.97596 0.247299 6.88138 0.792495 6.02696ZM10.535 1.5C7.32315 1.5 4.24689 3.3912 2.05782 6.83254L2.05719 6.83353C1.70261 7.38904 1.5 8.18424 1.5 9.025C1.5 9.86575 1.70261 10.661 2.05719 11.2165L2.05782 11.2175C4.24689 14.6588 7.32315 16.55 10.535 16.55C13.7469 16.55 16.8231 14.6588 19.0122 11.2175L19.0128 11.2165C19.3674 10.661 19.57 9.86575 19.57 9.025C19.57 8.18424 19.3674 7.38904 19.0128 6.83353L19.0122 6.83254C16.8231 3.3912 13.7469 1.5 10.535 1.5Z" fill="black" fill-opacity="0.56"/>
<path fill-rule="evenodd" clip-rule="evenodd" d="M2.06549 0.499699C2.35838 0.206806 2.83325 0.206806 3.12615 0.499699L19.0655 16.439C19.3584 16.7319 19.3584 17.2068 19.0655 17.4997C18.7726 17.7926 18.2977 17.7926 18.0048 17.4997L2.06549 1.56036C1.77259 1.26747 1.77259 0.792592 2.06549 0.499699Z" fill="#6C6C6C"/>
</svg>
