<svg width="22" height="19" viewBox="0 0 22 19" fill="none" xmlns="http://www.w3.org/2000/svg">
<path fill-rule="evenodd" clip-rule="evenodd" d="M1.04249 6.27696C3.43341 2.5186 6.93702 0.25 10.785 0.25C14.6331 0.25 18.1369 2.5188 20.5278 6.27746C21.0728 7.1318 21.32 8.22616 21.32 9.275C21.32 10.3238 21.0728 11.4182 20.5278 12.2725C18.1369 16.0312 14.6331 18.3 10.785 18.3C6.93685 18.3 3.43311 16.0312 1.04218 12.2725C0.497204 11.4182 0.25 10.3238 0.25 9.275C0.25 8.22596 0.497299 7.13138 1.04249 6.27696ZM10.785 1.75C7.57315 1.75 4.49689 3.6412 2.30782 7.08254L2.30719 7.08353C1.95261 7.63904 1.75 8.43424 1.75 9.275C1.75 10.1158 1.95261 10.911 2.30719 11.4665L2.30782 11.4675C4.49689 14.9088 7.57315 16.8 10.785 16.8C13.9969 16.8 17.0731 14.9088 19.2622 11.4675L19.2628 11.4665C19.6174 10.911 19.82 10.1158 19.82 9.275C19.82 8.43424 19.6174 7.63904 19.2628 7.08353L19.2622 7.08254C17.0731 3.6412 13.9969 1.75 10.785 1.75Z" fill="black" fill-opacity="0.56"/>
<path fill-rule="evenodd" clip-rule="evenodd" d="M10.7851 6.44995C9.21929 6.44995 7.95508 7.71416 7.95508 9.27995C7.95508 10.8457 9.21929 12.11 10.7851 12.11C12.3509 12.11 13.6151 10.8457 13.6151 9.27995C13.6151 7.71416 12.3509 6.44995 10.7851 6.44995ZM6.45508 9.27995C6.45508 6.88574 8.39086 4.94995 10.7851 4.94995C13.1793 4.94995 15.1151 6.88574 15.1151 9.27995C15.1151 11.6742 13.1793 13.61 10.7851 13.61C8.39086 13.61 6.45508 11.6742 6.45508 9.27995Z" fill="black" fill-opacity="0.56"/>
</svg>
