<svg width="24" height="24" viewBox="0 0 24 24" fill="none" xmlns="http://www.w3.org/2000/svg">
<path d="M17.3334 3.53333C15.8001 2.56667 13.9667 2 12.0001 2C10.0334 2 8.20008 2.56667 6.66675 3.53333V20.4333C8.20008 21.4 10.0334 21.9667 12.0001 21.9667C13.9667 21.9667 15.8001 21.4 17.3334 20.4333V3.53333Z" fill="#F9F9F9"/>
<path d="M17.3333 3.5332V20.4332C20.1333 18.6999 21.9999 15.4999 21.9999 11.9665C21.9999 8.4332 20.1333 5.29987 17.3333 3.5332Z" fill="#D90026"/>
<path d="M6.66667 3.5332C3.86667 5.29987 2 8.49987 2 11.9999C2 15.4999 3.86667 18.6999 6.66667 20.4665V3.5332Z" fill="#D90026"/>
<path d="M15.6333 11.867C15.5 11.8003 15.4667 11.667 15.5 11.6003L15.8333 10.4003L14.6667 10.6337C14.6333 10.6337 14.5 10.6337 14.4667 10.4003L14.3667 10.0003L13.5667 10.9337C13.5667 10.9337 13.0333 11.5003 13.2 10.6337L13.5333 8.80033L12.9 9.13366C12.8667 9.13366 12.7333 9.16699 12.5667 8.83366L12 7.66699L11.4 8.76699C11.2333 9.10033 11.1 9.06699 11.0667 9.06699L10.4333 8.73366L10.7667 10.567C10.9333 11.4337 10.4 10.867 10.4 10.867L9.6 9.93366L9.5 10.3337C9.43333 10.567 9.33333 10.567 9.3 10.567L8.13333 10.3337L8.46667 11.5337C8.46667 11.6337 8.46667 11.7337 8.33333 11.8003L8 12.0003C8 12.0003 9.33333 13.067 9.76667 13.4337C9.86667 13.5003 10.0667 13.7003 10 13.9337L9.83333 14.4003L11.6667 14.1337C11.7667 14.1337 11.9667 14.1337 11.9333 14.4337L11.8333 16.3337H12.1667L12.0667 14.4337C12.0667 14.1337 12.2667 14.1337 12.3333 14.1337L14.1667 14.4003L14 13.9337C13.9333 13.7003 14.1333 13.5003 14.2333 13.4337C14.6667 13.067 16 12.0003 16 12.0003L15.6333 11.867Z" fill="#D90026"/>
</svg>
