<svg width="25" height="24" viewBox="0 0 25 24" fill="none" xmlns="http://www.w3.org/2000/svg">
<path d="M20.8154 9.72855L13.3154 2.6523C13.3117 2.6491 13.3082 2.64566 13.305 2.64199C13.0289 2.39086 12.6691 2.25171 12.2958 2.25171C11.9226 2.25171 11.5627 2.39086 11.2866 2.64199L11.2763 2.6523L3.78474 9.72855C3.63192 9.86907 3.50994 10.0398 3.42651 10.2299C3.34308 10.42 3.30002 10.6253 3.30005 10.8329V19.5001C3.30005 19.8979 3.45808 20.2795 3.73939 20.5608C4.02069 20.8421 4.40222 21.0001 4.80005 21.0001H9.30005C9.69787 21.0001 10.0794 20.8421 10.3607 20.5608C10.642 20.2795 10.8 19.8979 10.8 19.5001V15.0001H13.8V19.5001C13.8 19.8979 13.9581 20.2795 14.2394 20.5608C14.5207 20.8421 14.9022 21.0001 15.3 21.0001H19.8C20.1979 21.0001 20.5794 20.8421 20.8607 20.5608C21.142 20.2795 21.3 19.8979 21.3 19.5001V10.8329C21.3001 10.6253 21.257 10.42 21.1736 10.2299C21.0902 10.0398 20.9682 9.86907 20.8154 9.72855ZM19.8 19.5001H15.3V15.0001C15.3 14.6023 15.142 14.2208 14.8607 13.9395C14.5794 13.6582 14.1979 13.5001 13.8 13.5001H10.8C10.4022 13.5001 10.0207 13.6582 9.73939 13.9395C9.45808 14.2208 9.30005 14.6023 9.30005 15.0001V19.5001H4.80005V10.8329L4.81036 10.8236L12.3 3.75011L19.7907 10.8217L19.801 10.8311L19.8 19.5001Z" fill="black" fill-opacity="0.54"/>
</svg>
