<svg width="25" height="24" viewBox="0 0 25 24" fill="none" xmlns="http://www.w3.org/2000/svg">
<path d="M21.3 10.8327V19.4999C21.3 19.8977 21.142 20.2792 20.8607 20.5605C20.5794 20.8418 20.1979 20.9999 19.8 20.9999H16.05C15.6522 20.9999 15.2707 20.8418 14.9894 20.5605C14.7081 20.2792 14.55 19.8977 14.55 19.4999V15.7499C14.55 15.551 14.471 15.3602 14.3304 15.2195C14.1897 15.0789 13.999 14.9999 13.8 14.9999H10.8C10.6011 14.9999 10.4104 15.0789 10.2697 15.2195C10.1291 15.3602 10.05 15.551 10.05 15.7499V19.4999C10.05 19.8977 9.89201 20.2792 9.61071 20.5605C9.3294 20.8418 8.94787 20.9999 8.55005 20.9999H4.80005C4.40222 20.9999 4.02069 20.8418 3.73939 20.5605C3.45808 20.2792 3.30005 19.8977 3.30005 19.4999V10.8327C3.30002 10.6251 3.34308 10.4197 3.42651 10.2296C3.50994 10.0395 3.63192 9.86883 3.78474 9.72831L11.2847 2.65206L11.295 2.64175C11.5712 2.39062 11.931 2.25146 12.3043 2.25146C12.6775 2.25146 13.0374 2.39062 13.3135 2.64175C13.3167 2.64541 13.3201 2.64886 13.3238 2.65206L20.8238 9.72831C20.9751 9.86957 21.0955 10.0406 21.1775 10.2307C21.2594 10.4207 21.3012 10.6257 21.3 10.8327Z" fill="#31CF77"/>
</svg>
