<svg width="18" height="21" viewBox="0 0 18 21" fill="none" xmlns="http://www.w3.org/2000/svg">
<path d="M16.6555 9.96942C16.7253 10.0391 16.7806 10.1218 16.8183 10.2128C16.8561 10.3039 16.8755 10.4015 16.8755 10.5C16.8755 10.5986 16.8561 10.6962 16.8183 10.7873C16.7806 10.8783 16.7253 10.961 16.6555 11.0307L8.96334 18.7182C7.9786 19.7028 6.64306 20.2559 5.25051 20.2558C3.85797 20.2557 2.52249 19.7024 1.53787 18.7177C0.553259 17.733 0.000156258 16.3974 0.000244151 15.0049C0.000332044 13.6123 0.553603 12.2769 1.53834 11.2922L10.844 1.84973C11.547 1.14596 12.5008 0.750284 13.4956 0.749756C14.4903 0.749229 15.4446 1.14389 16.1483 1.84692C16.8521 2.54995 17.2478 3.50376 17.2483 4.49853C17.2488 5.49329 16.8542 6.44752 16.1512 7.1513L6.84366 16.5938C6.42097 17.0165 5.84768 17.254 5.24991 17.254C4.65213 17.254 4.07884 17.0165 3.65616 16.5938C3.23347 16.1711 2.996 15.5978 2.996 15C2.996 14.4023 3.23347 13.829 3.65616 13.4063L11.4655 5.47317C11.5339 5.4002 11.6163 5.34164 11.7076 5.30095C11.799 5.26026 11.8976 5.23827 11.9976 5.23625C12.0976 5.23424 12.197 5.25225 12.29 5.28923C12.3829 5.32621 12.4675 5.3814 12.5388 5.45157C12.6101 5.52173 12.6666 5.60545 12.7051 5.69779C12.7435 5.79013 12.7631 5.88923 12.7627 5.98926C12.7623 6.08929 12.7419 6.18822 12.7026 6.28023C12.6634 6.37225 12.6062 6.45549 12.5343 6.52505L4.72397 14.4666C4.65404 14.536 4.59846 14.6185 4.5604 14.7093C4.52235 14.8002 4.50256 14.8976 4.50216 14.9961C4.50177 15.0946 4.52079 15.1922 4.55812 15.2834C4.59545 15.3746 4.65037 15.4575 4.71975 15.5274C4.78912 15.5973 4.87159 15.6529 4.96245 15.691C5.0533 15.729 5.15076 15.7488 5.24927 15.7492C5.34777 15.7496 5.44538 15.7306 5.53654 15.6932C5.62769 15.6559 5.7106 15.601 5.78053 15.5316L15.0871 6.0938C15.5098 5.67198 15.7476 5.09952 15.7482 4.50237C15.7488 3.90521 15.5122 3.33227 15.0904 2.90958C14.6686 2.48689 14.0961 2.24908 13.4989 2.24846C12.9018 2.24785 12.3288 2.48448 11.9062 2.9063L2.60241 12.345C2.25387 12.693 1.97729 13.1063 1.78845 13.5611C1.59961 14.016 1.50221 14.5036 1.50182 14.9961C1.50143 15.4886 1.59805 15.9764 1.78616 16.4316C1.97428 16.8868 2.2502 17.3004 2.59819 17.649C2.94617 17.9975 3.35939 18.2741 3.81427 18.4629C4.26914 18.6518 4.75675 18.7491 5.24927 18.7495C5.74178 18.7499 6.22955 18.6533 6.68472 18.4652C7.13989 18.2771 7.55356 18.0012 7.90209 17.6532L15.5952 9.96567C15.7364 9.82562 15.9273 9.74735 16.1262 9.74805C16.325 9.74875 16.5154 9.82838 16.6555 9.96942Z" fill="currentColor" fill-opacity="0.54"/>
</svg>
