<svg width="21" height="20" viewBox="0 0 21 20" fill="none" xmlns="http://www.w3.org/2000/svg">
<path d="M18.625 9.375H17.9734C17.8235 7.60894 17.0538 5.95282 15.8005 4.69953C14.5472 3.44624 12.8911 2.67654 11.125 2.52656V1.875C11.125 1.70924 11.0592 1.55027 10.9419 1.43306C10.8247 1.31585 10.6658 1.25 10.5 1.25C10.3342 1.25 10.1753 1.31585 10.0581 1.43306C9.94085 1.55027 9.875 1.70924 9.875 1.875V2.52656C8.10894 2.67654 6.45282 3.44624 5.19953 4.69953C3.94624 5.95282 3.17654 7.60894 3.02656 9.375H2.375C2.20924 9.375 2.05027 9.44085 1.93306 9.55806C1.81585 9.67527 1.75 9.83424 1.75 10C1.75 10.1658 1.81585 10.3247 1.93306 10.4419C2.05027 10.5592 2.20924 10.625 2.375 10.625H3.02656C3.17654 12.3911 3.94624 14.0472 5.19953 15.3005C6.45282 16.5538 8.10894 17.3235 9.875 17.4734V18.125C9.875 18.2908 9.94085 18.4497 10.0581 18.5669C10.1753 18.6842 10.3342 18.75 10.5 18.75C10.6658 18.75 10.8247 18.6842 10.9419 18.5669C11.0592 18.4497 11.125 18.2908 11.125 18.125V17.4734C12.8911 17.3235 14.5472 16.5538 15.8005 15.3005C17.0538 14.0472 17.8235 12.3911 17.9734 10.625H18.625C18.7908 10.625 18.9497 10.5592 19.0669 10.4419C19.1842 10.3247 19.25 10.1658 19.25 10C19.25 9.83424 19.1842 9.67527 19.0669 9.55806C18.9497 9.44085 18.7908 9.375 18.625 9.375ZM11.125 16.2188V15.625C11.125 15.4592 11.0592 15.3003 10.9419 15.1831C10.8247 15.0658 10.6658 15 10.5 15C10.3342 15 10.1753 15.0658 10.0581 15.1831C9.94085 15.3003 9.875 15.4592 9.875 15.625V16.2188C8.44131 16.0725 7.10196 15.4361 6.08292 14.4171C5.06388 13.398 4.42754 12.0587 4.28125 10.625H4.875C5.04076 10.625 5.19973 10.5592 5.31694 10.4419C5.43415 10.3247 5.5 10.1658 5.5 10C5.5 9.83424 5.43415 9.67527 5.31694 9.55806C5.19973 9.44085 5.04076 9.375 4.875 9.375H4.28125C4.42754 7.94131 5.06388 6.60196 6.08292 5.58292C7.10196 4.56388 8.44131 3.92754 9.875 3.78125V4.375C9.875 4.54076 9.94085 4.69973 10.0581 4.81694C10.1753 4.93415 10.3342 5 10.5 5C10.6658 5 10.8247 4.93415 10.9419 4.81694C11.0592 4.69973 11.125 4.54076 11.125 4.375V3.78125C12.5587 3.92754 13.898 4.56388 14.9171 5.58292C15.9361 6.60196 16.5725 7.94131 16.7188 9.375H16.125C15.9592 9.375 15.8003 9.44085 15.6831 9.55806C15.5658 9.67527 15.5 9.83424 15.5 10C15.5 10.1658 15.5658 10.3247 15.6831 10.4419C15.8003 10.5592 15.9592 10.625 16.125 10.625H16.7188C16.5725 12.0587 15.9361 13.398 14.9171 14.4171C13.898 15.4361 12.5587 16.0725 11.125 16.2188ZM10.5 6.875C9.88193 6.875 9.27775 7.05828 8.76384 7.40166C8.24994 7.74504 7.8494 8.2331 7.61288 8.80411C7.37635 9.37513 7.31447 10.0035 7.43505 10.6097C7.55562 11.2158 7.85325 11.7727 8.29029 12.2097C8.72733 12.6467 9.28415 12.9444 9.89034 13.065C10.4965 13.1855 11.1249 13.1236 11.6959 12.8871C12.2669 12.6506 12.755 12.2501 13.0983 11.7362C13.4417 11.2223 13.625 10.6181 13.625 10C13.625 9.1712 13.2958 8.37634 12.7097 7.79029C12.1237 7.20424 11.3288 6.875 10.5 6.875ZM10.5 11.875C10.1292 11.875 9.76665 11.765 9.45831 11.559C9.14996 11.353 8.90964 11.0601 8.76773 10.7175C8.62581 10.3749 8.58868 9.99792 8.66103 9.63421C8.73337 9.27049 8.91195 8.9364 9.17417 8.67417C9.4364 8.41195 9.77049 8.23337 10.1342 8.16103C10.4979 8.08868 10.8749 8.12581 11.2175 8.26773C11.5601 8.40964 11.853 8.64996 12.059 8.95831C12.265 9.26665 12.375 9.62916 12.375 10C12.375 10.4973 12.1775 10.9742 11.8258 11.3258C11.4742 11.6775 10.9973 11.875 10.5 11.875Z" fill="currentColor"/>
</svg>
