<svg width="34" height="48" viewBox="0 0 34 48" fill="none" xmlns="http://www.w3.org/2000/svg">
<circle cx="17" cy="19" r="12" fill="currentColor"/>
<path d="M17 22.8C15.3898 22.8 13.8455 22.1679 12.7069 21.0426C11.5682 19.9174 10.9286 18.3913 10.9286 16.8C10.9286 15.2087 11.5682 13.6826 12.7069 12.5574C13.8455 11.4321 15.3898 10.8 17 10.8C18.6102 10.8 20.1545 11.4321 21.2931 12.5574C22.4318 13.6826 23.0714 15.2087 23.0714 16.8C23.0714 17.5879 22.9144 18.3681 22.6093 19.0961C22.3042 19.8241 21.8569 20.4855 21.2931 21.0426C20.7294 21.5998 20.0601 22.0418 19.3234 22.3433C18.5868 22.6448 17.7973 22.8 17 22.8ZM17 0C12.4913 0 8.1673 1.76999 4.97918 4.92061C1.79107 8.07122 0 12.3444 0 16.8C0 29.4 17 48 17 48C17 48 34 29.4 34 16.8C34 12.3444 32.2089 8.07122 29.0208 4.92061C25.8327 1.76999 21.5087 0 17 0Z" fill="currentColor"/>
<path d="M9 10C8.46957 10 7.96086 10.2107 7.58579 10.5858C7.21071 10.9609 7 11.4696 7 12V23H9C9 23.7956 9.31607 24.5587 9.87868 25.1213C10.4413 25.6839 11.2044 26 12 26C12.7956 26 13.5587 25.6839 14.1213 25.1213C14.6839 24.5587 15 23.7956 15 23H21C21 23.7956 21.3161 24.5587 21.8787 25.1213C22.4413 25.6839 23.2044 26 24 26C24.7956 26 25.5587 25.6839 26.1213 25.1213C26.6839 24.5587 27 23.7956 27 23H29V18L26 14H23V10M16 12L20 16L16 20V17H10V15H16M23 15.5H25.5L27.47 18H23M12 21.5C12.3978 21.5 12.7794 21.658 13.0607 21.9393C13.342 22.2206 13.5 22.6022 13.5 23C13.5 23.3978 13.342 23.7794 13.0607 24.0607C12.7794 24.342 12.3978 24.5 12 24.5C11.6022 24.5 11.2206 24.342 10.9393 24.0607C10.658 23.7794 10.5 23.3978 10.5 23C10.5 22.6022 10.658 22.2206 10.9393 21.9393C11.2206 21.658 11.6022 21.5 12 21.5ZM24 21.5C24.3978 21.5 24.7794 21.658 25.0607 21.9393C25.342 22.2206 25.5 22.6022 25.5 23C25.5 23.3978 25.342 23.7794 25.0607 24.0607C24.7794 24.342 24.3978 24.5 24 24.5C23.6022 24.5 23.2206 24.342 22.9393 24.0607C22.658 23.7794 22.5 23.3978 22.5 23C22.5 22.6022 22.658 22.2206 22.9393 21.9393C23.2206 21.658 23.6022 21.5 24 21.5Z" fill="white"/>
</svg>
