<svg width="18" height="28" viewBox="0 0 18 28" fill="none" xmlns="http://www.w3.org/2000/svg">
<path d="M15 0H3C2.20435 0 1.44129 0.316071 0.87868 0.87868C0.316071 1.44129 0 2.20435 0 3V25C0 25.7956 0.316071 26.5587 0.87868 27.1213C1.44129 27.6839 2.20435 28 3 28H15C15.7956 28 16.5587 27.6839 17.1213 27.1213C17.6839 26.5587 18 25.7956 18 25V3C18 2.20435 17.6839 1.44129 17.1213 0.87868C16.5587 0.316071 15.7956 0 15 0ZM16 25C16 25.2652 15.8946 25.5196 15.7071 25.7071C15.5196 25.8946 15.2652 26 15 26H3C2.73478 26 2.48043 25.8946 2.29289 25.7071C2.10536 25.5196 2 25.2652 2 25V3C2 2.73478 2.10536 2.48043 2.29289 2.29289C2.48043 2.10536 2.73478 2 3 2H15C15.2652 2 15.5196 2.10536 15.7071 2.29289C15.8946 2.48043 16 2.73478 16 3V25ZM10.5 5.5C10.5 5.79667 10.412 6.08668 10.2472 6.33335C10.0824 6.58003 9.84811 6.77229 9.57402 6.88582C9.29994 6.99935 8.99834 7.02906 8.70736 6.97118C8.41639 6.9133 8.14912 6.77044 7.93934 6.56066C7.72956 6.35088 7.5867 6.08361 7.52882 5.79264C7.47094 5.50166 7.50065 5.20006 7.61418 4.92597C7.72771 4.65189 7.91997 4.41762 8.16665 4.2528C8.41332 4.08797 8.70333 4 9 4C9.39782 4 9.77936 4.15804 10.0607 4.43934C10.342 4.72064 10.5 5.10218 10.5 5.5Z" fill="black"/>
</svg>
