<svg width="25" height="24" viewBox="0 0 25 24" fill="none" xmlns="http://www.w3.org/2000/svg">
<path d="M21.8701 6.2017L13.6201 1.68764C13.3997 1.56584 13.152 1.50195 12.9001 1.50195C12.6483 1.50195 12.4006 1.56584 12.1801 1.68764L3.93015 6.20358C3.69454 6.33249 3.49787 6.52229 3.36066 6.75316C3.22346 6.98404 3.15076 7.24751 3.15015 7.51608V16.4823C3.15076 16.7509 3.22346 17.0144 3.36066 17.2452C3.49787 17.4761 3.69454 17.6659 3.93015 17.7948L12.1801 22.3108C12.4006 22.4326 12.6483 22.4965 12.9001 22.4965C13.152 22.4965 13.3997 22.4326 13.6201 22.3108L21.8701 17.7948C22.1058 17.6659 22.3024 17.4761 22.4396 17.2452C22.5768 17.0144 22.6495 16.7509 22.6501 16.4823V7.51701C22.65 7.24797 22.5776 6.98391 22.4403 6.7525C22.3031 6.52108 22.1062 6.33084 21.8701 6.2017ZM12.9001 3.00014L20.433 7.12514L17.6411 8.65233L10.1083 4.52733L12.9001 3.00014ZM12.9001 11.2501L5.36733 7.12514L8.5464 5.3842L16.0792 9.5092L12.9001 11.2501ZM21.1501 16.4861L13.6501 20.5914V12.5467L16.6501 10.9051V14.2501C16.6501 14.4491 16.7292 14.6398 16.8698 14.7805C17.0105 14.9211 17.2012 15.0001 17.4001 15.0001C17.5991 15.0001 17.7898 14.9211 17.9305 14.7805C18.0711 14.6398 18.1501 14.4491 18.1501 14.2501V10.0839L21.1501 8.44233V16.4823V16.4861Z" fill="#31CF77"/>
</svg>
