<svg width="20" height="16" viewBox="0 0 20 16" fill="none" xmlns="http://www.w3.org/2000/svg">
<path d="M1.5 1.25V14.75C1.5 14.9489 1.42098 15.1397 1.28033 15.2803C1.13968 15.421 0.948912 15.5 0.75 15.5C0.551088 15.5 0.360322 15.421 0.21967 15.2803C0.0790178 15.1397 0 14.9489 0 14.75V1.25C0 1.05109 0.0790178 0.860322 0.21967 0.71967C0.360322 0.579018 0.551088 0.5 0.75 0.5C0.948912 0.5 1.13968 0.579018 1.28033 0.71967C1.42098 0.860322 1.5 1.05109 1.5 1.25ZM9.375 6.35938L7.5 6.96875V5C7.5 4.80109 7.42098 4.61032 7.28033 4.46967C7.13968 4.32902 6.94891 4.25 6.75 4.25C6.55109 4.25 6.36032 4.32902 6.21967 4.46967C6.07902 4.61032 6 4.80109 6 5V6.96875L4.125 6.35938C3.93578 6.29721 3.72963 6.31277 3.55188 6.40261C3.37413 6.49245 3.23935 6.64922 3.17719 6.83844C3.11503 7.02765 3.13058 7.23381 3.22042 7.41156C3.31026 7.58931 3.46703 7.72409 3.65625 7.78625L5.53125 8.39469L4.37438 9.98844C4.31324 10.0679 4.26864 10.1588 4.24323 10.2557C4.21782 10.3527 4.2121 10.4538 4.22642 10.553C4.24073 10.6522 4.27479 10.7475 4.32658 10.8334C4.37837 10.9192 4.44683 10.9938 4.52793 11.0527C4.60903 11.1116 4.70112 11.1536 4.79875 11.1764C4.89638 11.1991 4.99758 11.202 5.09636 11.1849C5.19514 11.1679 5.28949 11.1312 5.37385 11.077C5.45821 11.0229 5.53086 10.9524 5.5875 10.8697L6.74438 9.27594L7.90125 10.8697C7.95789 10.9524 8.03054 11.0229 8.1149 11.077C8.19926 11.1312 8.29361 11.1679 8.39239 11.1849C8.49117 11.202 8.59237 11.1991 8.69 11.1764C8.78763 11.1536 8.87972 11.1116 8.96082 11.0527C9.04192 10.9938 9.11038 10.9192 9.16217 10.8334C9.21396 10.7475 9.24802 10.6522 9.26233 10.553C9.27665 10.4538 9.27093 10.3527 9.24552 10.2557C9.22011 10.1588 9.17551 10.0679 9.11438 9.98844L7.9575 8.39469L9.8325 7.78625C10.0134 7.71898 10.1613 7.58459 10.2456 7.41102C10.33 7.23745 10.3441 7.03806 10.2852 6.85431C10.2263 6.67056 10.0988 6.51659 9.92931 6.42441C9.75979 6.33223 9.56126 6.30894 9.375 6.35938ZM19.3125 6.84125C19.251 6.65376 19.1182 6.49804 18.9427 6.40784C18.7672 6.31764 18.5632 6.30023 18.375 6.35938L16.5 6.96875V5C16.5 4.80109 16.421 4.61032 16.2803 4.46967C16.1397 4.32902 15.9489 4.25 15.75 4.25C15.5511 4.25 15.3603 4.32902 15.2197 4.46967C15.079 4.61032 15 4.80109 15 5V6.96875L13.125 6.36031C13.0313 6.32984 12.9325 6.31812 12.8343 6.32583C12.7361 6.33353 12.6404 6.3605 12.5526 6.4052C12.4648 6.44991 12.3866 6.51146 12.3226 6.58636C12.2586 6.66126 12.21 6.74803 12.1795 6.84172C12.1491 6.93541 12.1373 7.03418 12.145 7.1324C12.1527 7.23062 12.1797 7.32636 12.2244 7.41416C12.2691 7.50195 12.3307 7.58008 12.4056 7.64409C12.4805 7.70809 12.5672 7.75672 12.6609 7.78719L14.5359 8.39563L13.3791 9.98938C13.3179 10.0688 13.2733 10.1597 13.2479 10.2567C13.2225 10.3536 13.2168 10.4547 13.2311 10.5539C13.2454 10.6531 13.2795 10.7485 13.3313 10.8343C13.3831 10.9201 13.4515 10.9947 13.5326 11.0536C13.6137 11.1125 13.7058 11.1546 13.8034 11.1773C13.9011 11.2 14.0023 11.2029 14.101 11.1859C14.1998 11.1688 14.2942 11.1321 14.3785 11.078C14.4629 11.0238 14.5355 10.9533 14.5922 10.8706L15.7491 9.27687L16.9059 10.8706C16.9626 10.9533 17.0352 11.0238 17.1196 11.078C17.2039 11.1321 17.2983 11.1688 17.3971 11.1859C17.4959 11.2029 17.5971 11.2 17.6947 11.1773C17.7923 11.1546 17.8844 11.1125 17.9655 11.0536C18.0466 10.9947 18.1151 10.9201 18.1669 10.8343C18.2186 10.7485 18.2527 10.6531 18.267 10.5539C18.2813 10.4547 18.2756 10.3536 18.2502 10.2567C18.2248 10.1597 18.1802 10.0688 18.1191 9.98938L16.9622 8.39563L18.8372 7.78719C19.0254 7.72446 19.1811 7.58969 19.2702 7.41239C19.3593 7.2351 19.3745 7.02973 19.3125 6.84125Z" fill="black"/>
</svg>
