<svg width="25" height="24" viewBox="0 0 25 24" fill="none" xmlns="http://www.w3.org/2000/svg">
<path d="M22.2388 16.4136C22.0716 17.6839 21.4477 18.85 20.4837 19.6939C19.5196 20.5379 18.2813 21.0021 17 20.9998C9.55625 20.9998 3.5 14.9436 3.5 7.49981C3.4977 6.21852 3.9619 4.98021 4.80588 4.01615C5.64986 3.05209 6.81591 2.42822 8.08625 2.26106C8.40749 2.22184 8.7328 2.28756 9.01361 2.44841C9.29443 2.60926 9.51569 2.85662 9.64438 3.15356L11.6244 7.57387V7.58512C11.7229 7.81242 11.7636 8.06058 11.7428 8.30744C11.722 8.5543 11.6404 8.79217 11.5053 8.99981C11.4884 9.02512 11.4706 9.04856 11.4519 9.072L9.5 11.3857C10.2022 12.8126 11.6947 14.292 13.1403 14.9961L15.4222 13.0545C15.4446 13.0357 15.4681 13.0181 15.4925 13.002C15.7 12.8636 15.9387 12.7792 16.187 12.7562C16.4353 12.7333 16.6854 12.7727 16.9147 12.8707L16.9269 12.8764L21.3434 14.8554C21.6409 14.9837 21.8889 15.2047 22.0502 15.4856C22.2116 15.7664 22.2778 16.092 22.2388 16.4136Z" fill="white"/>
</svg>
