<svg width="13" height="13" viewBox="0 0 13 13" fill="none" xmlns="http://www.w3.org/2000/svg">
<path d="M12.4925 9.94237C12.3811 10.7893 11.9651 11.5666 11.3224 12.1293C10.6797 12.6919 9.85419 13.0014 9 12.9999C4.0375 12.9999 -1.97399e-06 8.96237 -1.97399e-06 3.99987C-0.00153321 3.14568 0.307927 2.32014 0.870581 1.67743C1.43324 1.03473 2.2106 0.618815 3.0575 0.507374C3.27166 0.481224 3.48853 0.525037 3.67574 0.632273C3.86295 0.739508 4.01046 0.904414 4.09625 1.10237L5.41625 4.04925V4.05675C5.48193 4.20828 5.50905 4.37372 5.4952 4.5383C5.48135 4.70287 5.42696 4.86145 5.33687 4.99987C5.32562 5.01675 5.31375 5.03237 5.30125 5.048L4 6.5905C4.46812 7.54175 5.46312 8.528 6.42687 8.99737L7.94812 7.703C7.96306 7.69044 7.97871 7.67875 7.995 7.668C8.13331 7.57575 8.29243 7.51944 8.45798 7.50416C8.62352 7.48888 8.79027 7.51512 8.94312 7.5805L8.95125 7.58425L11.8956 8.90362C12.0939 8.98911 12.2592 9.13649 12.3668 9.32372C12.4744 9.51096 12.5185 9.728 12.4925 9.94237Z" fill="#31CF77"/>
</svg>
