<svg width="24" height="24" viewBox="0 0 24 24" fill="none" xmlns="http://www.w3.org/2000/svg">
<path d="M13.5001 14.7823C14.6758 14.0501 15.581 12.9548 16.0788 11.6622C16.5766 10.3697 16.6399 8.95013 16.2591 7.61839C15.8783 6.28666 15.0741 5.11518 13.9682 4.2812C12.8623 3.44721 11.5149 2.99609 10.1298 2.99609C8.74467 2.99609 7.39724 3.44721 6.29134 4.2812C5.18545 5.11518 4.38126 6.28666 4.00045 7.61839C3.61964 8.95013 3.68292 10.3697 4.18072 11.6622C4.67852 12.9548 5.58375 14.0501 6.75947 14.7823C4.82353 15.4161 3.08165 16.6002 1.68103 18.267C1.6154 18.3421 1.5654 18.4295 1.53394 18.524C1.50247 18.6186 1.49019 18.7186 1.49779 18.818C1.5054 18.9174 1.53274 19.0142 1.57823 19.103C1.62371 19.1917 1.68643 19.2704 1.76271 19.3346C1.83898 19.3988 1.92729 19.4471 2.02247 19.4768C2.11764 19.5064 2.21778 19.5168 2.31702 19.5073C2.41625 19.4978 2.5126 19.4687 2.60043 19.4215C2.68826 19.3743 2.7658 19.3101 2.82853 19.2327C4.71103 16.9864 7.30415 15.7498 10.1251 15.7498C12.946 15.7498 15.5392 16.9864 17.4254 19.2327C17.5535 19.3851 17.7368 19.4804 17.9351 19.4976C18.1334 19.5148 18.3305 19.4526 18.4829 19.3245C18.6353 19.1965 18.7306 19.0131 18.7479 18.8148C18.7651 18.6165 18.7028 18.4194 18.5748 18.267C17.1732 16.6002 15.4313 15.4161 13.5001 14.7823ZM5.25009 9.37484C5.25009 8.41066 5.53601 7.46813 6.07168 6.66644C6.60735 5.86475 7.36872 5.23991 8.25951 4.87093C9.1503 4.50195 10.1305 4.40541 11.0762 4.59351C12.0218 4.78162 12.8905 5.24592 13.5722 5.9277C14.254 6.60948 14.7183 7.47812 14.9064 8.42378C15.0945 9.36944 14.998 10.3496 14.629 11.2404C14.26 12.1312 13.6352 12.8926 12.8335 13.4283C12.0318 13.9639 11.0893 14.2498 10.1251 14.2498C8.83262 14.2484 7.59351 13.7343 6.67959 12.8203C5.76567 11.9064 5.25158 10.6673 5.25009 9.37484ZM22.8985 13.4127L22.4617 13.1605C22.5129 12.8891 22.5129 12.6106 22.4617 12.3392L22.8985 12.087C23.0708 11.9876 23.1966 11.8237 23.2481 11.6316C23.2996 11.4394 23.2727 11.2347 23.1732 11.0623C23.0738 10.89 22.9099 10.7643 22.7178 10.7128C22.5256 10.6613 22.3208 10.6882 22.1485 10.7877L21.7107 11.0408C21.5012 10.861 21.2603 10.7215 21.0001 10.6292V10.1248C21.0001 9.92593 20.9211 9.73517 20.7804 9.59451C20.6398 9.45386 20.449 9.37484 20.2501 9.37484C20.0512 9.37484 19.8604 9.45386 19.7198 9.59451C19.5791 9.73517 19.5001 9.92593 19.5001 10.1248V10.6292C19.2399 10.7215 18.999 10.861 18.7895 11.0408L18.3517 10.7877C18.2663 10.7384 18.1722 10.7065 18.0745 10.6936C17.9768 10.6808 17.8776 10.6873 17.7824 10.7128C17.6873 10.7383 17.5981 10.7823 17.5199 10.8423C17.4418 10.9022 17.3762 10.977 17.327 11.0623C17.2777 11.1477 17.2458 11.2418 17.2329 11.3395C17.2201 11.4372 17.2266 11.5364 17.2521 11.6316C17.2776 11.7267 17.3216 11.8159 17.3816 11.8941C17.4416 11.9722 17.5163 12.0378 17.6017 12.087L18.0385 12.3392C17.9873 12.6106 17.9873 12.8891 18.0385 13.1605L17.6017 13.4127C17.4293 13.5121 17.3036 13.6759 17.2521 13.8681C17.2006 14.0603 17.2275 14.265 17.327 14.4373C17.4264 14.6097 17.5903 14.7354 17.7824 14.7869C17.9746 14.8384 18.1793 14.8115 18.3517 14.712L18.7895 14.4589C18.999 14.6387 19.2399 14.7782 19.5001 14.8705V15.3748C19.5001 15.5738 19.5791 15.7645 19.7198 15.9052C19.8604 16.0458 20.0512 16.1248 20.2501 16.1248C20.449 16.1248 20.6398 16.0458 20.7804 15.9052C20.9211 15.7645 21.0001 15.5738 21.0001 15.3748V14.8705C21.2603 14.7782 21.5012 14.6387 21.7107 14.4589L22.1485 14.712C22.2624 14.7781 22.3918 14.8128 22.5235 14.8123C22.6887 14.8124 22.8492 14.758 22.9803 14.6574C23.1113 14.5569 23.2055 14.416 23.2483 14.2564C23.291 14.0969 23.2799 13.9277 23.2167 13.7752C23.1534 13.6226 23.0416 13.4952 22.8985 13.4127ZM19.5001 12.7498C19.5001 12.6015 19.5441 12.4565 19.6265 12.3332C19.7089 12.2098 19.826 12.1137 19.9631 12.0569C20.1001 12.0002 20.2509 11.9853 20.3964 12.0143C20.5419 12.0432 20.6755 12.1146 20.7804 12.2195C20.8853 12.3244 20.9567 12.458 20.9857 12.6035C21.0146 12.749 20.9998 12.8998 20.943 13.0369C20.8862 13.1739 20.7901 13.291 20.6668 13.3734C20.5434 13.4559 20.3984 13.4998 20.2501 13.4998C20.0512 13.4998 19.8604 13.4208 19.7198 13.2802C19.5791 13.1395 19.5001 12.9488 19.5001 12.7498Z" fill="black"/>
</svg>
