<svg width="25" height="24" viewBox="0 0 25 24" fill="none" xmlns="http://www.w3.org/2000/svg">
<path d="M20.375 12.75C20.2644 12.75 20.1547 12.7556 20.046 12.7659L19.0382 9.7425L16.9616 3.51281C16.9118 3.36347 16.8163 3.23358 16.6886 3.14155C16.5609 3.04951 16.4075 2.99999 16.25 3H13.25C13.0511 3 12.8604 3.07902 12.7197 3.21967C12.5791 3.36032 12.5 3.55109 12.5 3.75C12.5 3.94891 12.5791 4.13968 12.7197 4.28033C12.8604 4.42098 13.0511 4.5 13.25 4.5H15.7091L17.4904 9.83156L12.8835 15.75H7.97849C7.88604 14.9258 7.49339 14.1646 6.87544 13.6114C6.2575 13.0583 5.45753 12.7521 4.6282 12.7512C3.79887 12.7503 2.99824 13.0548 2.37909 13.6065C1.75994 14.1583 1.36562 14.9187 1.27138 15.7427C1.17714 16.5666 1.38958 17.3965 1.86815 18.0738C2.34672 18.7511 3.05793 19.2285 3.86604 19.4149C4.67416 19.6012 5.52261 19.4836 6.24949 19.0843C6.97637 18.685 7.53078 18.032 7.80692 17.25H13.25C13.3642 17.2499 13.4768 17.2238 13.5793 17.1736C13.6819 17.1234 13.7716 17.0504 13.8416 16.9603L18.0604 11.5416L18.6229 13.2413C17.926 13.665 17.4062 14.3267 17.1595 15.104C16.9127 15.8814 16.9558 16.7218 17.2808 17.4698C17.6058 18.2178 18.1906 18.8229 18.9272 19.173C19.6637 19.5232 20.5021 19.5949 21.2874 19.3747C22.0727 19.1545 22.7517 18.6575 23.1988 17.9754C23.646 17.2934 23.831 16.4725 23.7198 15.6645C23.6085 14.8566 23.2084 14.1163 22.5936 13.5805C21.9787 13.0447 21.1906 12.7497 20.375 12.75ZM4.62505 18C4.25421 18 3.8917 17.89 3.58336 17.684C3.27501 17.478 3.03469 17.1851 2.89278 16.8425C2.75086 16.4999 2.71373 16.1229 2.78608 15.7592C2.85842 15.3955 3.037 15.0614 3.29922 14.7992C3.56145 14.537 3.89554 14.3584 4.25926 14.286C4.62297 14.2137 4.99997 14.2508 5.34258 14.3927C5.68519 14.5346 5.97803 14.775 6.18405 15.0833C6.39008 15.3916 6.50005 15.7542 6.50005 16.125C6.50005 16.3712 6.45155 16.615 6.35732 16.8425C6.2631 17.07 6.12498 17.2767 5.95087 17.4508C5.77676 17.6249 5.57007 17.763 5.34258 17.8573C5.1151 17.9515 4.87128 18 4.62505 18ZM20.375 18C20.0042 18 19.6417 17.89 19.3334 17.684C19.025 17.478 18.7847 17.1851 18.6428 16.8425C18.5009 16.4999 18.4637 16.1229 18.5361 15.7592C18.6084 15.3955 18.787 15.0614 19.0492 14.7992C19.3114 14.537 19.6455 14.3584 20.0093 14.286C20.373 14.2137 20.75 14.2508 21.0926 14.3927C21.4352 14.5346 21.728 14.775 21.9341 15.0833C22.1401 15.3916 22.25 15.7542 22.25 16.125C22.25 16.3712 22.2016 16.615 22.1073 16.8425C22.0131 17.07 21.875 17.2767 21.7009 17.4508C21.5268 17.6249 21.3201 17.763 21.0926 17.8573C20.8651 17.9515 20.6213 18 20.375 18Z" fill="currentColor"/>
</svg>
