<svg width="27" height="26" viewBox="0 0 27 26" fill="none" xmlns="http://www.w3.org/2000/svg">
<path d="M6.5 1C6.5 0.734784 6.60536 0.48043 6.7929 0.292893C6.98043 0.105357 7.23479 0 7.5 0H19.5C19.7652 0 20.0196 0.105357 20.2071 0.292893C20.3946 0.48043 20.5 0.734784 20.5 1C20.5 1.26522 20.3946 1.51957 20.2071 1.70711C20.0196 1.89464 19.7652 2 19.5 2H7.5C7.23479 2 6.98043 1.89464 6.7929 1.70711C6.60536 1.51957 6.5 1.26522 6.5 1ZM26.4238 12.6175C26.3481 12.4348 26.22 12.2786 26.0555 12.1686C25.8911 12.0587 25.6978 12 25.5 12H20.5V9C20.5 8.73478 20.3946 8.48043 20.2071 8.29289C20.0196 8.10536 19.7652 8 19.5 8H7.5C7.23479 8 6.98043 8.10536 6.7929 8.29289C6.60536 8.48043 6.5 8.73478 6.5 9V12H1.5C1.30211 11.9998 1.10861 12.0584 0.94402 12.1683C0.779426 12.2782 0.651132 12.4344 0.575379 12.6172C0.499627 12.8 0.479822 13.0012 0.518472 13.1953C0.557123 13.3894 0.65249 13.5676 0.792502 13.7075L12.7925 25.7075C12.8854 25.8005 12.9957 25.8742 13.1171 25.9246C13.2385 25.9749 13.3686 26.0008 13.5 26.0008C13.6314 26.0008 13.7615 25.9749 13.8829 25.9246C14.0043 25.8742 14.1146 25.8005 14.2075 25.7075L26.2075 13.7075C26.3473 13.5676 26.4425 13.3893 26.481 13.1953C26.5195 13.0013 26.4995 12.8002 26.4238 12.6175ZM7.5 6H19.5C19.7652 6 20.0196 5.89464 20.2071 5.70711C20.3946 5.51957 20.5 5.26522 20.5 5C20.5 4.73478 20.3946 4.48043 20.2071 4.29289C20.0196 4.10536 19.7652 4 19.5 4H7.5C7.23479 4 6.98043 4.10536 6.7929 4.29289C6.60536 4.48043 6.5 4.73478 6.5 5C6.5 5.26522 6.60536 5.51957 6.7929 5.70711C6.98043 5.89464 7.23479 6 7.5 6Z" fill="black" fill-opacity="0.54"/>
</svg>
