<svg width="24" height="24" viewBox="0 0 24 24" fill="none" xmlns="http://www.w3.org/2000/svg">
<path d="M18.75 4.4375H18.75C18.6139 4.43761 18.4809 4.39734 18.3677 4.32181C18.2546 4.24627 18.1664 4.13886 18.1143 4.01317C18.0622 3.88748 18.0486 3.74916 18.0751 3.61573C18.1017 3.48229 18.1673 3.35974 18.2635 3.26359L18.2636 3.26357L19.0136 2.51357C19.1426 2.38456 19.3176 2.31208 19.5 2.31208C19.6824 2.31208 19.8574 2.38456 19.9864 2.51357C20.1154 2.64258 20.1879 2.81755 20.1879 3C20.1879 3.18245 20.1154 3.35742 19.9864 3.48643L19.2365 4.23641C19.1726 4.30023 19.0967 4.35084 19.0133 4.38534C18.9298 4.41985 18.8404 4.43757 18.75 4.4375ZM12.595 6.82792C12.6832 6.8082 12.7744 6.80606 12.8634 6.82163L12.8634 6.82195C15.3273 7.23491 17.1875 9.46107 17.1875 12C17.1875 12.1823 17.1151 12.3572 16.9861 12.4861C16.8572 12.6151 16.6823 12.6875 16.5 12.6875C16.3177 12.6875 16.1428 12.6151 16.0139 12.4861C15.8849 12.3572 15.8125 12.1823 15.8125 12C15.8125 10.1255 14.448 8.48234 12.6385 8.17805L12.6379 8.17795C12.5482 8.1638 12.4621 8.13201 12.3848 8.08442C12.3074 8.03683 12.2403 7.97439 12.1872 7.9007C12.1341 7.82701 12.0961 7.74353 12.0755 7.65509C12.0549 7.56664 12.052 7.47499 12.0669 7.38541C12.0819 7.29584 12.1145 7.21012 12.1628 7.13321C12.2111 7.0563 12.2742 6.98972 12.3484 6.93732C12.4225 6.88492 12.5064 6.84774 12.595 6.82792ZM3.75 15.0625H3.8125V15V12C3.81247 10.9195 4.02629 9.84975 4.44165 8.85231C4.857 7.85487 5.46567 6.94951 6.23256 6.18841C6.99946 5.42731 7.90941 4.82553 8.90997 4.41775C9.91053 4.00998 10.9819 3.80427 12.0623 3.8125L12.0623 3.8125C16.5414 3.84599 20.1875 7.56085 20.1875 12.0938V15V15.0625H20.25C20.6312 15.0625 20.9969 15.214 21.2665 15.4835C21.536 15.7531 21.6875 16.1188 21.6875 16.5V18.75C21.6875 19.1312 21.536 19.4969 21.2665 19.7665C20.9969 20.036 20.6312 20.1875 20.25 20.1875H3.75C3.36875 20.1875 3.00312 20.036 2.73353 19.7665C2.46395 19.4969 2.3125 19.1312 2.3125 18.75V16.5C2.3125 16.1188 2.46395 15.7531 2.73353 15.4835C3.00312 15.214 3.36875 15.0625 3.75 15.0625ZM5.1875 15V15.0625H5.25H18.75H18.8125V15V12.0938C18.8125 8.31022 15.7809 5.21495 12.052 5.1875H12.0516H12C10.1932 5.1875 8.46043 5.90524 7.18283 7.18283C5.90524 8.46043 5.1875 10.1932 5.1875 12V15ZM20.25 18.8125H20.3125V18.75V16.5V16.4375H20.25H3.75H3.6875V16.5V18.75V18.8125H3.75H20.25ZM11.3125 1.5V0.75C11.3125 0.567664 11.3849 0.392795 11.5139 0.263864C11.6428 0.134933 11.8177 0.0625 12 0.0625C12.1823 0.0625 12.3572 0.134933 12.4861 0.263864C12.6151 0.392795 12.6875 0.567663 12.6875 0.75V1.5C12.6875 1.68234 12.6151 1.8572 12.4861 1.98614C12.3572 2.11507 12.1823 2.1875 12 2.1875C11.8177 2.1875 11.6428 2.11507 11.5139 1.98614C11.3849 1.8572 11.3125 1.68234 11.3125 1.5ZM4.98675 4.38555C4.90328 4.35098 4.82745 4.30031 4.76357 4.23643L4.01357 3.48643C3.88456 3.35742 3.81208 3.18245 3.81208 3C3.81208 2.81755 3.88456 2.64258 4.01357 2.51357C4.14258 2.38456 4.31755 2.31208 4.5 2.31208C4.68245 2.31208 4.85742 2.38456 4.98643 2.51357L5.73643 3.26357C5.80031 3.32745 5.85098 3.40328 5.88555 3.48675C5.92012 3.57021 5.93792 3.65966 5.93792 3.75C5.93792 3.84034 5.92012 3.92979 5.88555 4.01325C5.85098 4.09672 5.80031 4.17255 5.73643 4.23643C5.67255 4.30031 5.59672 4.35098 5.51325 4.38555C5.42979 4.42012 5.34034 4.43792 5.25 4.43792C5.15966 4.43792 5.07021 4.42012 4.98675 4.38555Z" fill="currentColor"/>
</svg>
