<svg width="20" height="14" viewBox="0 0 20 14" fill="none" xmlns="http://www.w3.org/2000/svg">
<path d="M0 1C0 0.801088 0.0790178 0.610322 0.21967 0.46967C0.360322 0.329018 0.551088 0.25 0.75 0.25H17.25C17.4489 0.25 17.6397 0.329018 17.7803 0.46967C17.921 0.610322 18 0.801088 18 1C18 1.19891 17.921 1.38968 17.7803 1.53033C17.6397 1.67098 17.4489 1.75 17.25 1.75H0.75C0.551088 1.75 0.360322 1.67098 0.21967 1.53033C0.0790178 1.38968 0 1.19891 0 1ZM0.75 7.75H7.5C7.69891 7.75 7.88968 7.67098 8.03033 7.53033C8.17098 7.38968 8.25 7.19891 8.25 7C8.25 6.80109 8.17098 6.61032 8.03033 6.46967C7.88968 6.32902 7.69891 6.25 7.5 6.25H0.75C0.551088 6.25 0.360322 6.32902 0.21967 6.46967C0.0790178 6.61032 0 6.80109 0 7C0 7.19891 0.0790178 7.38968 0.21967 7.53033C0.360322 7.67098 0.551088 7.75 0.75 7.75ZM9 12.25H0.75C0.551088 12.25 0.360322 12.329 0.21967 12.4697C0.0790178 12.6103 0 12.8011 0 13C0 13.1989 0.0790178 13.3897 0.21967 13.5303C0.360322 13.671 0.551088 13.75 0.75 13.75H9C9.19891 13.75 9.38968 13.671 9.53033 13.5303C9.67098 13.3897 9.75 13.1989 9.75 13C9.75 12.8011 9.67098 12.6103 9.53033 12.4697C9.38968 12.329 9.19891 12.25 9 12.25ZM19.2806 13.5306C19.211 13.6004 19.1283 13.6557 19.0372 13.6934C18.9462 13.7312 18.8486 13.7506 18.75 13.7506C18.6514 13.7506 18.5538 13.7312 18.4628 13.6934C18.3717 13.6557 18.289 13.6004 18.2194 13.5306L16.3125 11.6275C15.537 12.1391 14.5993 12.3447 13.6809 12.2043C12.7625 12.064 11.9289 11.5877 11.3416 10.8679C10.7544 10.148 10.4552 9.23574 10.5022 8.30789C10.5491 7.38004 10.9388 6.50265 11.5957 5.84572C12.2526 5.18879 13.13 4.7991 14.0579 4.75216C14.9857 4.70522 15.898 5.00437 16.6179 5.59164C17.3377 6.17891 17.814 7.0125 17.9543 7.93088C18.0947 8.84925 17.8891 9.78703 17.3775 10.5625L19.2806 12.4656C19.3509 12.5353 19.4067 12.6183 19.4448 12.7097C19.4829 12.8011 19.5025 12.8991 19.5025 12.9981C19.5025 13.0971 19.4829 13.1952 19.4448 13.2866C19.4067 13.378 19.3509 13.4609 19.2806 13.5306ZM14.25 10.75C14.695 10.75 15.13 10.618 15.5 10.3708C15.87 10.1236 16.1584 9.77217 16.3287 9.36104C16.499 8.9499 16.5436 8.4975 16.4568 8.06105C16.37 7.62459 16.1557 7.22368 15.841 6.90901C15.5263 6.59434 15.1254 6.38005 14.689 6.29323C14.2525 6.20642 13.8001 6.25097 13.389 6.42127C12.9778 6.59157 12.6264 6.87996 12.3792 7.24997C12.132 7.61998 12 8.05499 12 8.5C12 9.09674 12.2371 9.66903 12.659 10.091C13.081 10.5129 13.6533 10.75 14.25 10.75Z" fill="black"/>
</svg>
