<svg width="129" height="128" viewBox="0 0 129 128" fill="none" xmlns="http://www.w3.org/2000/svg">
<path d="M122.141 34.1201L110.141 22.3401C108.641 20.8471 106.612 20.0088 104.496 20.0088C102.38 20.0088 100.35 20.8471 98.8507 22.3401L52.5007 68.0001L52.4457 67.9451L34.1257 50.3101C32.6227 48.8226 30.5918 47.9906 28.4771 47.9963C26.3623 48.0019 24.3359 48.8446 22.8407 50.3401L10.8407 62.3401C9.34312 63.84 8.50195 65.873 8.50195 67.9926C8.50195 70.1122 9.34312 72.1452 10.8407 73.6451L46.6507 109.645C47.3936 110.388 48.2756 110.978 49.2464 111.38C50.2171 111.782 51.2575 111.989 52.3082 111.989C53.359 111.989 54.3994 111.782 55.3701 111.38C56.3409 110.978 57.2229 110.388 57.9657 109.645L122.166 45.4551C122.91 44.7102 123.5 43.8256 123.902 42.8522C124.304 41.8787 124.509 40.8355 124.507 39.7824C124.505 38.7293 124.295 37.687 123.888 36.7153C123.482 35.7437 122.888 34.8617 122.141 34.1201ZM52.3107 104L16.5007 68.0001L28.5007 56.0001L28.5557 56.0551L46.8757 73.6901C48.3738 75.174 50.3971 76.0065 52.5057 76.0065C54.6144 76.0065 56.6377 75.174 58.1357 73.6901L104.531 28.0001L116.501 39.8001L52.3107 104Z" fill="currentColor"/>
</svg>
