<svg width="19" height="14" viewBox="0 0 19 14" fill="none" xmlns="http://www.w3.org/2000/svg">
<path d="M18.2653 1.01552L6.26528 13.0155C6.23045 13.0504 6.18909 13.078 6.14357 13.0969C6.09804 13.1158 6.04925 13.1255 5.99996 13.1255C5.95068 13.1255 5.90189 13.1158 5.85636 13.0969C5.81084 13.078 5.76948 13.0504 5.73465 13.0155L0.484652 7.76552C0.414286 7.69516 0.374756 7.59972 0.374756 7.50021C0.374756 7.4007 0.414287 7.30526 0.484652 7.2349C0.555017 7.16453 0.650453 7.125 0.749964 7.125C0.849476 7.125 0.944912 7.16453 1.01528 7.2349L5.99996 12.2196L17.7347 0.484896C17.805 0.414531 17.9005 0.375 18 0.375C18.0995 0.375 18.1949 0.414531 18.2653 0.484896C18.3356 0.555261 18.3752 0.650697 18.3752 0.750209C18.3752 0.84972 18.3356 0.945156 18.2653 1.01552Z" fill="black"/>
</svg>
