<svg width="25" height="24" viewBox="0 0 25 24" fill="none" xmlns="http://www.w3.org/2000/svg">
<path d="M10.9076 13.2629L10.8228 13.3282L10.9214 13.37C12.8383 14.1806 14.3471 15.8132 14.8659 17.828L14.8659 17.828C14.8921 17.9296 14.8947 18.0359 14.8736 18.1387C14.8524 18.2415 14.8079 18.3381 14.7436 18.421C14.6793 18.504 14.5969 18.5711 14.5027 18.6173C14.4084 18.6635 14.3048 18.6875 14.1999 18.6874H14.1998H2.19984L2.19981 18.6874C2.09486 18.6875 1.99128 18.6635 1.89703 18.6173C1.80278 18.5711 1.72034 18.504 1.65605 18.421C1.59176 18.3381 1.54732 18.2415 1.52612 18.1387C1.50493 18.0359 1.50756 17.9296 1.53379 17.828L1.5338 17.828C2.05257 15.8142 3.56141 14.1815 5.47827 13.37L5.57686 13.3282L5.49204 13.2629C4.75803 12.6975 4.21939 11.9166 3.95166 11.0296C3.68393 10.1427 3.70053 9.19415 3.99914 8.31709C4.29775 7.44004 4.8634 6.67845 5.61674 6.13913C6.37009 5.59981 7.27335 5.30981 8.19984 5.30981C9.12634 5.30981 10.0296 5.59981 10.7829 6.13913C11.5363 6.67845 12.1019 7.44004 12.4005 8.31709C12.6992 9.19415 12.7158 10.1427 12.448 11.0296C12.1803 11.9166 11.6416 12.6975 10.9076 13.2629ZM14.2623 7.4999C14.2623 7.31756 14.3348 7.14269 14.4637 7.01376C14.5926 6.88483 14.7675 6.8124 14.9498 6.8124H23.9498C24.1322 6.8124 24.307 6.88483 24.436 7.01376C24.5649 7.14269 24.6373 7.31756 24.6373 7.4999C24.6373 7.68224 24.5649 7.8571 24.436 7.98603C24.307 8.11497 24.1322 8.1874 23.9498 8.1874H14.9498C14.7675 8.1874 14.5926 8.11497 14.4637 7.98603C14.3348 7.8571 14.2623 7.68224 14.2623 7.4999ZM14.9498 11.3124H23.9498C24.1322 11.3124 24.307 11.3848 24.436 11.5138C24.5649 11.6427 24.6373 11.8176 24.6373 11.9999C24.6373 12.1822 24.5649 12.3571 24.436 12.486C24.307 12.615 24.1322 12.6874 23.9498 12.6874H14.9498C14.7675 12.6874 14.5926 12.615 14.4637 12.486C14.3348 12.3571 14.2623 12.1822 14.2623 11.9999C14.2623 11.8176 14.3348 11.6427 14.4637 11.5138C14.5926 11.3848 14.7675 11.3124 14.9498 11.3124ZM17.1998 15.8124H23.9498C24.1322 15.8124 24.307 15.8848 24.436 16.0138C24.5649 16.1427 24.6373 16.3176 24.6373 16.4999C24.6373 16.6822 24.5649 16.8571 24.436 16.986C24.307 17.115 24.1322 17.1874 23.9498 17.1874H17.1998C17.0175 17.1874 16.8426 17.115 16.7137 16.986C16.5848 16.8571 16.5123 16.6822 16.5123 16.4999C16.5123 16.3176 16.5848 16.1427 16.7137 16.0138C16.8426 15.8848 17.0175 15.8124 17.1998 15.8124Z" fill="#31CF77" stroke="#31CF77" stroke-width="0.125"/>
</svg>
