<svg width="25" height="24" viewBox="0 0 25 24" fill="none" xmlns="http://www.w3.org/2000/svg">
<path d="M14.2 7.50014C14.2 7.30123 14.2791 7.11047 14.4197 6.96981C14.5604 6.82916 14.7511 6.75014 14.95 6.75014H23.95C24.1489 6.75014 24.3397 6.82916 24.4804 6.96981C24.621 7.11047 24.7 7.30123 24.7 7.50014C24.7 7.69906 24.621 7.88982 24.4804 8.03047C24.3397 8.17113 24.1489 8.25014 23.95 8.25014H14.95C14.7511 8.25014 14.5604 8.17113 14.4197 8.03047C14.2791 7.88982 14.2 7.69906 14.2 7.50014ZM23.95 11.2501H14.95C14.7511 11.2501 14.5604 11.3292 14.4197 11.4698C14.2791 11.6105 14.2 11.8012 14.2 12.0001C14.2 12.1991 14.2791 12.3898 14.4197 12.5305C14.5604 12.6711 14.7511 12.7501 14.95 12.7501H23.95C24.1489 12.7501 24.3397 12.6711 24.4804 12.5305C24.621 12.3898 24.7 12.1991 24.7 12.0001C24.7 11.8012 24.621 11.6105 24.4804 11.4698C24.3397 11.3292 24.1489 11.2501 23.95 11.2501ZM23.95 15.7501H17.2C17.0011 15.7501 16.8104 15.8292 16.6697 15.9698C16.5291 16.1105 16.45 16.3012 16.45 16.5001C16.45 16.6991 16.5291 16.8898 16.6697 17.0305C16.8104 17.1711 17.0011 17.2501 17.2 17.2501H23.95C24.1489 17.2501 24.3397 17.1711 24.4804 17.0305C24.621 16.8898 24.7 16.6991 24.7 16.5001C24.7 16.3012 24.621 16.1105 24.4804 15.9698C24.3397 15.8292 24.1489 15.7501 23.95 15.7501ZM14.9266 17.8126C14.9511 17.9081 14.9566 18.0074 14.9427 18.1049C14.9289 18.2024 14.8959 18.2963 14.8458 18.3811C14.7956 18.4659 14.7293 18.54 14.6505 18.5991C14.5717 18.6582 14.482 18.7013 14.3866 18.7258C14.3255 18.7422 14.2624 18.7504 14.1991 18.7501C14.0328 18.7502 13.8711 18.695 13.7396 18.5932C13.6081 18.4914 13.5141 18.3487 13.4725 18.1876C12.895 15.9433 10.6282 14.2501 8.1991 14.2501C5.77004 14.2501 3.50316 15.9423 2.92566 18.1876C2.87593 18.3803 2.75169 18.5454 2.58027 18.6465C2.40885 18.7476 2.2043 18.7764 2.0116 18.7267C1.8189 18.677 1.65385 18.5527 1.55276 18.3813C1.45167 18.2099 1.42281 18.0053 1.47254 17.8126C1.9966 15.7773 3.52004 14.1292 5.45316 13.3126C4.70882 12.7393 4.16259 11.9474 3.89108 11.0479C3.61958 10.1485 3.63642 9.1866 3.93923 8.29719C4.24205 7.40779 4.81566 6.63547 5.57962 6.08855C6.34357 5.54164 7.25955 5.24756 8.1991 5.24756C9.13864 5.24756 10.0546 5.54164 10.8186 6.08855C11.5825 6.63547 12.1561 7.40779 12.459 8.29719C12.7618 9.1866 12.7786 10.1485 12.5071 11.0479C12.2356 11.9474 11.6894 12.7393 10.945 13.3126C12.8791 14.1292 14.4025 15.7773 14.9266 17.8126ZM8.20004 12.7501C8.79338 12.7501 9.3734 12.5742 9.86675 12.2446C10.3601 11.9149 10.7446 11.4464 10.9717 10.8982C11.1987 10.35 11.2581 9.74682 11.1424 9.16487C11.0266 8.58293 10.7409 8.04838 10.3214 7.62882C9.9018 7.20927 9.36725 6.92354 8.78531 6.80779C8.20336 6.69203 7.60016 6.75144 7.05199 6.9785C6.50381 7.20557 6.03527 7.59009 5.70563 8.08343C5.37598 8.57678 5.20004 9.1568 5.20004 9.75014C5.20004 10.5458 5.51611 11.3089 6.07872 11.8715C6.64132 12.4341 7.40439 12.7501 8.20004 12.7501Z" fill="black" fill-opacity="0.54"/>
<path d="M14.3711 18.6652L14.3703 18.6654C14.3146 18.6804 14.2571 18.6879 14.1994 18.6876H14.1991C14.0466 18.6877 13.8984 18.6371 13.7779 18.5438C13.6573 18.4504 13.5712 18.3197 13.5331 18.1721C12.948 15.8983 10.6548 14.1876 8.1991 14.1876C5.74346 14.1876 3.45021 15.8973 2.86513 18.1721C2.81954 18.3487 2.70565 18.5 2.54852 18.5926C2.39138 18.6853 2.20386 18.7118 2.02722 18.6662C1.85057 18.6206 1.69927 18.5067 1.60659 18.3496C1.51392 18.1924 1.48747 18.0049 1.53305 17.8283L1.53306 17.8282C2.05184 15.8134 3.56069 14.1799 5.47748 13.3702L5.5762 13.3285L5.4913 13.2631C4.75729 12.6978 4.21865 11.9169 3.95092 11.0299C3.68318 10.1429 3.69979 9.19439 3.9984 8.31734C4.29701 7.44028 4.86266 6.67869 5.616 6.13937C6.36934 5.60005 7.2726 5.31006 8.1991 5.31006C9.12559 5.31006 10.0289 5.60005 10.7822 6.13937C11.5355 6.67869 12.1012 7.44028 12.3998 8.31734C12.6984 9.19439 12.715 10.1429 12.4473 11.0299C12.1795 11.9169 11.6409 12.6978 10.9069 13.2631L10.822 13.3285L10.9207 13.3702C12.8385 14.1799 14.3473 15.8134 14.8661 17.8282C14.8885 17.9157 14.8936 18.0067 14.8808 18.0961C14.8681 18.1855 14.8379 18.2715 14.792 18.3493C14.746 18.427 14.6852 18.4949 14.6129 18.5491C14.5407 18.6033 14.4585 18.6428 14.3711 18.6652ZM14.2625 7.50014C14.2625 7.31781 14.335 7.14294 14.4639 7.01401C14.5928 6.88508 14.7677 6.81264 14.95 6.81264H23.95C24.1324 6.81264 24.3072 6.88508 24.4362 7.01401C24.5651 7.14294 24.6375 7.31781 24.6375 7.50014C24.6375 7.68248 24.5651 7.85735 24.4362 7.98628C24.3072 8.11521 24.1324 8.18764 23.95 8.18764H14.95C14.7677 8.18764 14.5928 8.11521 14.4639 7.98628C14.335 7.85735 14.2625 7.68248 14.2625 7.50014ZM14.95 11.3126H23.95C24.1324 11.3126 24.3072 11.3851 24.4362 11.514C24.5651 11.6429 24.6375 11.8178 24.6375 12.0001C24.6375 12.1825 24.5651 12.3573 24.4362 12.4863C24.3072 12.6152 24.1324 12.6876 23.95 12.6876H14.95C14.7677 12.6876 14.5928 12.6152 14.4639 12.4863C14.335 12.3573 14.2625 12.1825 14.2625 12.0001C14.2625 11.8178 14.335 11.6429 14.4639 11.514C14.5928 11.3851 14.7677 11.3126 14.95 11.3126ZM17.2 15.8126H23.95C24.1324 15.8126 24.3072 15.8851 24.4362 16.014C24.5651 16.1429 24.6375 16.3178 24.6375 16.5001C24.6375 16.6825 24.5651 16.8573 24.4362 16.9863C24.3072 17.1152 24.1324 17.1876 23.95 17.1876H17.2C17.0177 17.1876 16.8428 17.1152 16.7139 16.9863C16.585 16.8573 16.5125 16.6825 16.5125 16.5001C16.5125 16.3178 16.585 16.1429 16.7139 16.014C16.8428 15.8851 17.0177 15.8126 17.2 15.8126ZM8.20004 12.8126C8.80574 12.8126 9.39784 12.633 9.90147 12.2965C10.4051 11.96 10.7976 11.4817 11.0294 10.9221C11.2612 10.3625 11.3219 9.74675 11.2037 9.15268C11.0855 8.55861 10.7938 8.01293 10.3656 7.58463C9.93725 7.15633 9.39157 6.86466 8.7975 6.74649C8.20343 6.62832 7.58767 6.68897 7.02807 6.92076C6.46847 7.15256 5.99017 7.54508 5.65366 8.04871C5.31715 8.55234 5.13754 9.14444 5.13754 9.75014C5.13754 10.5624 5.46019 11.3413 6.03452 11.9157C6.60885 12.49 7.38781 12.8126 8.20004 12.8126Z" stroke="black" stroke-opacity="0.54" stroke-width="0.125"/>
</svg>
